<svg xmlns="http://www.w3.org/2000/svg" xmlns:xlink="http://www.w3.org/1999/xlink" xmlns:lucid="lucid" width="1690.87" height="1236"><g transform="translate(-80 -140)" lucid:page-tab-id="0_0"><path d="M760 766a6 6 0 0 1 6-6h388a6 6 0 0 1 6 6v324a6 6 0 0 1-6 6H766a6 6 0 0 1-6-6z" fill="#bb86fc"/><path d="M760 766a6 6 0 0 1 6-6h388a6 6 0 0 1 6 6v324a6 6 0 0 1-6 6H766a6 6 0 0 1-6-6zM760 800h400M820 800v296M1042.67 800v296" stroke="#9e66e4" stroke-width="2" fill="none"/><use xlink:href="#a" transform="matrix(1,0,0,1,770,760) translate(152.43827160493828 24.444444444444443)"/><use xlink:href="#b" transform="matrix(1,0,0,1,765,802.5) translate(10.833333333333334 20.444444444444443)"/><use xlink:href="#c" transform="matrix(1,0,0,1,825,802.5) translate(0 20.444444444444443)"/><use xlink:href="#d" transform="matrix(1,0,0,1,1047.6666666666667,802.5) translate(0 20.444444444444443)"/><use xlink:href="#e" transform="matrix(1,0,0,1,765,839.5) translate(6.543209876543209 20.444444444444443)"/><use xlink:href="#f" transform="matrix(1,0,0,1,825,839.5) translate(0 20.444444444444443)"/><use xlink:href="#g" transform="matrix(1,0,0,1,1047.6666666666667,839.5) translate(0 20.444444444444443)"/><use xlink:href="#e" transform="matrix(1,0,0,1,765,876.5) translate(6.543209876543209 20.444444444444443)"/><use xlink:href="#h" transform="matrix(1,0,0,1,825,876.5) translate(0 20.444444444444443)"/><use xlink:href="#g" transform="matrix(1,0,0,1,1047.6666666666667,876.5) translate(0 20.444444444444443)"/><use xlink:href="#e" transform="matrix(1,0,0,1,765,913.5) translate(6.543209876543209 20.444444444444443)"/><use xlink:href="#i" transform="matrix(1,0,0,1,825,913.5) translate(0 20.444444444444443)"/><use xlink:href="#g" transform="matrix(1,0,0,1,1047.6666666666667,913.5) translate(0 20.444444444444443)"/><use xlink:href="#e" transform="matrix(1,0,0,1,765,950.5) translate(6.543209876543209 20.444444444444443)"/><use xlink:href="#j" transform="matrix(1,0,0,1,825,950.5) translate(0 20.444444444444443)"/><use xlink:href="#g" transform="matrix(1,0,0,1,1047.6666666666667,950.5) translate(0 20.444444444444443)"/><use xlink:href="#e" transform="matrix(1,0,0,1,765,987.5) translate(6.543209876543209 20.444444444444443)"/><use xlink:href="#k" transform="matrix(1,0,0,1,825,987.5) translate(0 20.444444444444443)"/><use xlink:href="#g" transform="matrix(1,0,0,1,1047.6666666666667,987.5) translate(0 20.444444444444443)"/><use xlink:href="#e" transform="matrix(1,0,0,1,765,1024.5) translate(6.543209876543209 20.444444444444443)"/><use xlink:href="#l" transform="matrix(1,0,0,1,825,1024.5) translate(0 20.444444444444443)"/><use xlink:href="#g" transform="matrix(1,0,0,1,1047.6666666666667,1024.5) translate(0 20.444444444444443)"/><use xlink:href="#e" transform="matrix(1,0,0,1,765,1061.5) translate(6.543209876543209 20.444444444444443)"/><use xlink:href="#m" transform="matrix(1,0,0,1,825,1061.5) translate(0 20.444444444444443)"/><use xlink:href="#g" transform="matrix(1,0,0,1,1047.6666666666667,1061.5) translate(0 20.444444444444443)"/><path d="M100 672a6 6 0 0 1 6-6h368a6 6 0 0 1 6 6v213a6 6 0 0 1-6 6H106a6 6 0 0 1-6-6z" fill="#bb86fc"/><path d="M100 672a6 6 0 0 1 6-6h368a6 6 0 0 1 6 6v213a6 6 0 0 1-6 6H106a6 6 0 0 1-6-6zM100 706h380M160 706v185M368.4 706v185" stroke="#9e66e4" stroke-width="2" fill="none"/><use xlink:href="#n" transform="matrix(1,0,0,1,110,666) translate(135 24.444444444444443)"/><use xlink:href="#b" transform="matrix(1,0,0,1,105,708.5) translate(10.833333333333334 20.444444444444443)"/><use xlink:href="#c" transform="matrix(1,0,0,1,165,708.5) translate(0 20.444444444444443)"/><use xlink:href="#d" transform="matrix(1,0,0,1,373.4000000000001,708.5) translate(0 20.444444444444443)"/><use xlink:href="#e" transform="matrix(1,0,0,1,105,745.5) translate(6.543209876543209 20.444444444444443)"/><use xlink:href="#o" transform="matrix(1,0,0,1,165,745.5) translate(0 20.444444444444443)"/><use xlink:href="#g" transform="matrix(1,0,0,1,373.4000000000001,745.5) translate(0 20.444444444444443)"/><use xlink:href="#e" transform="matrix(1,0,0,1,105,782.5) translate(6.543209876543209 20.444444444444443)"/><use xlink:href="#p" transform="matrix(1,0,0,1,165,782.5) translate(0 20.444444444444443)"/><use xlink:href="#g" transform="matrix(1,0,0,1,373.4000000000001,782.5) translate(0 20.444444444444443)"/><use xlink:href="#e" transform="matrix(1,0,0,1,105,819.5) translate(6.543209876543209 20.444444444444443)"/><use xlink:href="#q" transform="matrix(1,0,0,1,165,819.5) translate(0 20.444444444444443)"/><use xlink:href="#g" transform="matrix(1,0,0,1,373.4000000000001,819.5) translate(0 20.444444444444443)"/><use xlink:href="#r" transform="matrix(1,0,0,1,105,856.5) translate(10.833333333333334 20.444444444444443)"/><use xlink:href="#s" transform="matrix(1,0,0,1,165,856.5) translate(0 20.444444444444443)"/><use xlink:href="#d" transform="matrix(1,0,0,1,373.4000000000001,856.5) translate(0 20.444444444444443)"/><path d="M1320 192a6 6 0 0 1 6-6h288a6 6 0 0 1 6 6v102a6 6 0 0 1-6 6h-288a6 6 0 0 1-6-6z" fill="#bb86fc"/><path d="M1320 192a6 6 0 0 1 6-6h288a6 6 0 0 1 6 6v102a6 6 0 0 1-6 6h-288a6 6 0 0 1-6-6zM1320 226h300M1380 226v74M1496.8 226v74" stroke="#9e66e4" stroke-width="2" fill="none"/><use xlink:href="#t" transform="matrix(1,0,0,1,1330,186) translate(88.82716049382717 24.444444444444443)"/><use xlink:href="#e" transform="matrix(1,0,0,1,1325,228.5) translate(6.543209876543209 20.444444444444443)"/><use xlink:href="#u" transform="matrix(1,0,0,1,1385,228.5) translate(0 20.444444444444443)"/><use xlink:href="#g" transform="matrix(1,0,0,1,1501.8000000000006,228.5) translate(0 20.444444444444443)"/><use xlink:href="#r" transform="matrix(1,0,0,1,1325,265.5) translate(10.833333333333334 20.444444444444443)"/><use xlink:href="#v" transform="matrix(1,0,0,1,1385,265.5) translate(0 20.444444444444443)"/><use xlink:href="#d" transform="matrix(1,0,0,1,1501.8000000000006,265.5) translate(0 20.444444444444443)"/><path d="M1180.93 779.3H1194a6 6 0 0 0 6-6V287.75a6 6 0 0 1 6-6h74.56" stroke="#03dac6" stroke-width="3" fill="none"/><path d="M1170.93 789.3v-20M1160.93 779.3h20M1180.93 789.3v-20M1309.06 271.74v20M1319.06 281.74h-20M1299.06 281.74c0 5.52-4.47 10-10 10-5.52 0-10-4.48-10-10s4.48-10 10-10c5.53 0 10 4.48 10 10" stroke="#03dac6" stroke-width="3" fill="#fff"/><path d="M519.5 872.75H614a6 6 0 0 0 6-6v-81.5a6 6 0 0 1 6-6h113" stroke="#03dac6" stroke-width="3" fill="none"/><path d="M481.67 862.75l20 10-20 10" stroke="#03dac6" stroke-width="3" fill="#fff" fill-opacity="0"/><path d="M481.67 872.75h20M521.67 872.75c0 5.52-4.48 10-10 10-5.53 0-10-4.48-10-10 0-5.53 4.47-10 10-10 5.52 0 10 4.47 10 10M749 769.26v20M759 779.26h-20M739 769.26v20" stroke="#03dac6" stroke-width="3" fill="#fff"/><path d="M530 520a6 6 0 0 1 6-6h268a6 6 0 0 1 6 6v102a6 6 0 0 1-6 6H536a6 6 0 0 1-6-6z" fill="#bb86fc"/><path d="M530 520a6 6 0 0 1 6-6h268a6 6 0 0 1 6 6v102a6 6 0 0 1-6 6H536a6 6 0 0 1-6-6zM530 554h280M590 554v74M714.8 554v74" stroke="#9e66e4" stroke-width="2" fill="none"/><use xlink:href="#w" transform="matrix(1,0,0,1,540,514) translate(60.987654320987644 24.444444444444443)"/><use xlink:href="#r" transform="matrix(1,0,0,1,535,556.5) translate(10.833333333333334 20.444444444444443)"/><use xlink:href="#v" transform="matrix(1,0,0,1,595,556.5) translate(0 20.444444444444443)"/><use xlink:href="#d" transform="matrix(1,0,0,1,719.8000000000001,556.5) translate(0 20.444444444444443)"/><use xlink:href="#r" transform="matrix(1,0,0,1,535,593.5) translate(10.833333333333334 20.444444444444443)"/><use xlink:href="#x" transform="matrix(1,0,0,1,595,593.5) translate(0 20.444444444444443)"/><use xlink:href="#d" transform="matrix(1,0,0,1,719.8000000000001,593.5) translate(0 20.444444444444443)"/><path d="M849.46 572.5h65.98a6 6 0 0 1 6 6v160.54" stroke="#03dac6" stroke-width="3" fill="none"/><path d="M811.64 562.5l20 10-20 10" stroke="#03dac6" stroke-width="3" fill="#fff" fill-opacity="0"/><path d="M811.64 572.5h20M851.64 572.5c0 5.53-4.48 10-10 10-5.53 0-10-4.47-10-10 0-5.5 4.47-10 10-10 5.52 0 10 4.5 10 10M931.44 749.04h-20M921.44 759.04v-20M931.44 739.04h-20" stroke="#03dac6" stroke-width="3" fill="#fff"/><path d="M490.56 609.76h-155.8a6 6 0 0 0-6 6v29.27" stroke="#03dac6" stroke-width="3" fill="none"/><path d="M528.4 619.76l-20-10 20-10" stroke="#03dac6" stroke-width="3" fill="#fff" fill-opacity="0"/><path d="M528.4 609.76h-20M508.4 609.76c0 5.52-4.48 10-10 10-5.53 0-10-4.48-10-10 0-5.53 4.47-10 10-10 5.52 0 10 4.47 10 10M338.75 655.03h-20M328.75 665.03v-20M338.75 645.03h-20" stroke="#03dac6" stroke-width="3" fill="#fff"/><path d="M530 380a6 6 0 0 1 6-6h268a6 6 0 0 1 6 6v102a6 6 0 0 1-6 6H536a6 6 0 0 1-6-6z" fill="#bb86fc"/><path d="M530 380a6 6 0 0 1 6-6h268a6 6 0 0 1 6 6v102a6 6 0 0 1-6 6H536a6 6 0 0 1-6-6zM530 414h280M590 414v74M714.8 414v74" stroke="#9e66e4" stroke-width="2" fill="none"/><use xlink:href="#y" transform="matrix(1,0,0,1,540,374) translate(56.04938271604938 24.444444444444443)"/><use xlink:href="#r" transform="matrix(1,0,0,1,535,416.5) translate(10.833333333333334 20.444444444444443)"/><use xlink:href="#v" transform="matrix(1,0,0,1,595,416.5) translate(0 20.444444444444443)"/><use xlink:href="#d" transform="matrix(1,0,0,1,719.8000000000001,416.5) translate(0 20.444444444444443)"/><use xlink:href="#r" transform="matrix(1,0,0,1,535,453.5) translate(10.833333333333334 20.444444444444443)"/><use xlink:href="#x" transform="matrix(1,0,0,1,595,453.5) translate(0 20.444444444444443)"/><use xlink:href="#d" transform="matrix(1,0,0,1,719.8000000000001,453.5) translate(0 20.444444444444443)"/><path d="M960 739.04V438.5a6 6 0 0 0-6-6H849.46" stroke="#03dac6" stroke-width="3" fill="none"/><path d="M970 749.04h-20M960 759.04v-20M970 739.04h-20" stroke="#03dac6" stroke-width="3" fill="#fff"/><path d="M811.64 422.5l20 10-20 10" stroke="#03dac6" stroke-width="3" fill="#fff" fill-opacity="0"/><path d="M811.64 432.5h20M851.64 432.5c0 5.53-4.48 10-10 10-5.53 0-10-4.47-10-10 0-5.5 4.47-10 10-10 5.52 0 10 4.5 10 10" stroke="#03dac6" stroke-width="3" fill="#fff"/><path d="M290 645.04V475.76a6 6 0 0 1 6-6h194.56" stroke="#03dac6" stroke-width="3" fill="none"/><path d="M300 655.04h-20M290 665.04v-20M300 645.04h-20" stroke="#03dac6" stroke-width="3" fill="#fff"/><path d="M528.4 479.76l-20-10 20-10" stroke="#03dac6" stroke-width="3" fill="#fff" fill-opacity="0"/><path d="M528.4 469.76h-20M508.4 469.76c0 5.52-4.48 10-10 10-5.53 0-10-4.48-10-10 0-5.53 4.47-10 10-10 5.52 0 10 4.47 10 10" stroke="#03dac6" stroke-width="3" fill="#fff"/><path d="M485 166a6 6 0 0 1 6-6h358a6 6 0 0 1 6 6v176a6 6 0 0 1-6 6H491a6 6 0 0 1-6-6z" fill="#bb86fc"/><path d="M485 166a6 6 0 0 1 6-6h358a6 6 0 0 1 6 6v176a6 6 0 0 1-6 6H491a6 6 0 0 1-6-6zM485 200h370M545 200v148M686.28 200v148" stroke="#9e66e4" stroke-width="2" fill="none"/><use xlink:href="#z" transform="matrix(1,0,0,1,495,160) translate(118.33333333333334 24.444444444444443)"/><use xlink:href="#r" transform="matrix(1,0,0,1,490,202.5) translate(10.833333333333334 20.444444444444443)"/><use xlink:href="#v" transform="matrix(1,0,0,1,550,202.5) translate(0 20.444444444444443)"/><use xlink:href="#d" transform="matrix(1,0,0,1,691.275848444295,202.5) translate(0 20.444444444444443)"/><use xlink:href="#r" transform="matrix(1,0,0,1,490,239.5) translate(10.833333333333334 20.444444444444443)"/><use xlink:href="#x" transform="matrix(1,0,0,1,550,239.5) translate(0 20.444444444444443)"/><use xlink:href="#d" transform="matrix(1,0,0,1,691.275848444295,239.5) translate(0 20.444444444444443)"/><use xlink:href="#e" transform="matrix(1,0,0,1,490,276.5) translate(6.543209876543209 20.444444444444443)"/><use xlink:href="#A" transform="matrix(1,0,0,1,550,276.5) translate(0 20.444444444444443)"/><use xlink:href="#B" transform="matrix(1,0,0,1,691.275848444295,276.5) translate(0 20.444444444444443)"/><use xlink:href="#e" transform="matrix(1,0,0,1,490,313.5) translate(6.543209876543209 20.444444444444443)"/><use xlink:href="#C" transform="matrix(1,0,0,1,550,313.5) translate(0 20.444444444444443)"/><use xlink:href="#g" transform="matrix(1,0,0,1,691.275848444295,313.5) translate(0 20.444444444444443)"/><path d="M894.45 218.5h99.9a6 6 0 0 1 6 6v514.53" stroke="#03dac6" stroke-width="3" fill="none"/><path d="M856.62 208.5l20 10-20 10" stroke="#03dac6" stroke-width="3" fill="#fff" fill-opacity="0"/><path d="M856.62 218.5h20M896.62 218.5c0 5.53-4.48 10-10 10s-10-4.47-10-10c0-5.5 4.48-10 10-10s10 4.5 10 10M1010.36 749.03h-20M1000.36 759.03v-20M1010.36 739.03h-20" stroke="#03dac6" stroke-width="3" fill="#fff"/><path d="M445.54 255.5h-189.3a6 6 0 0 0-6 6v383.54" stroke="#03dac6" stroke-width="3" fill="none"/><path d="M483.37 265.5l-20-10 20-10" stroke="#03dac6" stroke-width="3" fill="#fff" fill-opacity="0"/><path d="M483.37 255.5h-20M463.37 255.5c0 5.52-4.48 10-10 10-5.53 0-10-4.48-10-10s4.47-10 10-10c5.52 0 10 4.48 10 10M260.23 655.04h-20M250.23 665.04v-20M260.23 645.04h-20" stroke="#03dac6" stroke-width="3" fill="#fff"/><path d="M1320 327.42a6 6 0 0 1 6-6h418.87a6 6 0 0 1 6 6v176a6 6 0 0 1-6 6H1326a6 6 0 0 1-6-6z" fill="#bb86fc"/><path d="M1320 327.42a6 6 0 0 1 6-6h418.87a6 6 0 0 1 6 6v176a6 6 0 0 1-6 6H1326a6 6 0 0 1-6-6zM1320 361.42h430.87M1380 361.42v148M1568.8 361.42v148" stroke="#9e66e4" stroke-width="2" fill="none"/><use xlink:href="#D" transform="matrix(1,0,0,1,1330,321.42157014766076) translate(124.14197530864199 24.444444444444443)"/><use xlink:href="#r" transform="matrix(1,0,0,1,1325,363.92157014766076) translate(10.833333333333334 20.444444444444443)"/><use xlink:href="#v" transform="matrix(1,0,0,1,1385,363.92157014766076) translate(0 20.444444444444443)"/><use xlink:href="#d" transform="matrix(1,0,0,1,1573.8000000000006,363.92157014766076) translate(0 20.444444444444443)"/><use xlink:href="#e" transform="matrix(1,0,0,1,1325,400.92157014766076) translate(6.543209876543209 20.444444444444443)"/><use xlink:href="#E" transform="matrix(1,0,0,1,1385,400.92157014766076) translate(0 20.444444444444443)"/><use xlink:href="#g" transform="matrix(1,0,0,1,1573.8000000000006,400.92157014766076) translate(0 20.444444444444443)"/><use xlink:href="#e" transform="matrix(1,0,0,1,1325,437.92157014766076) translate(6.543209876543209 20.444444444444443)"/><use xlink:href="#F" transform="matrix(1,0,0,1,1385,437.92157014766076) translate(0 20.444444444444443)"/><use xlink:href="#G" transform="matrix(1,0,0,1,1573.8000000000006,437.92157014766076) translate(0 20.444444444444443)"/><use xlink:href="#e" transform="matrix(1,0,0,1,1325,474.92157014766076) translate(6.543209876543209 20.444444444444443)"/><use xlink:href="#H" transform="matrix(1,0,0,1,1385,474.92157014766076) translate(0 20.444444444444443)"/><use xlink:href="#g" transform="matrix(1,0,0,1,1573.8000000000006,474.92157014766076) translate(0 20.444444444444443)"/><path d="M1280.52 379.76H1216a6 6 0 0 0-6 6V812a6 6 0 0 1-6 6h-23.06" stroke="#03dac6" stroke-width="3" fill="none"/><path d="M1309.02 369.76v20M1319.02 379.76h-20M1299.02 379.76c0 5.52-4.48 10-10 10s-10-4.48-10-10 4.48-10 10-10 10 4.48 10 10M1170.94 828v-20M1160.94 818h20M1180.94 828v-20" stroke="#03dac6" stroke-width="3" fill="#fff"/><path d="M1320 536.84a6 6 0 0 1 6-6h308a6 6 0 0 1 6 6v102a6 6 0 0 1-6 6h-308a6 6 0 0 1-6-6z" fill="#bb86fc"/><path d="M1320 536.84a6 6 0 0 1 6-6h308a6 6 0 0 1 6 6v102a6 6 0 0 1-6 6h-308a6 6 0 0 1-6-6zM1320 570.84h320M1380 570.84v74M1500 570.84v74" stroke="#9e66e4" stroke-width="2" fill="none"/><use xlink:href="#I" transform="matrix(1,0,0,1,1330,530.8431402953215) translate(66.23456790123458 24.444444444444443)"/><use xlink:href="#r" transform="matrix(1,0,0,1,1325,573.3431402953215) translate(10.833333333333334 20.444444444444443)"/><use xlink:href="#v" transform="matrix(1,0,0,1,1385,573.3431402953215) translate(0 20.444444444444443)"/><use xlink:href="#d" transform="matrix(1,0,0,1,1505,573.3431402953215) translate(0 20.444444444444443)"/><use xlink:href="#e" transform="matrix(1,0,0,1,1325,610.3431402953215) translate(6.543209876543209 20.444444444444443)"/><use xlink:href="#A" transform="matrix(1,0,0,1,1385,610.3431402953215) translate(0 20.444444444444443)"/><use xlink:href="#J" transform="matrix(1,0,0,1,1505,610.3431402953215) translate(0 20.444444444444443)"/><path d="M1280.54 589.35H1226a6 6 0 0 0-6 6v253.8a6 6 0 0 1-6 6h-33.05" stroke="#03dac6" stroke-width="3" fill="none"/><path d="M1309.04 579.35v20M1319.04 589.35h-20M1299.04 589.35c0 5.52-4.48 10-10 10-5.53 0-10-4.48-10-10 0-5.53 4.47-10 10-10 5.52 0 10 4.47 10 10M1170.95 865.16v-20M1160.95 855.16h20M1180.95 865.16v-20" stroke="#03dac6" stroke-width="3" fill="#fff"/><path d="M1320 672a6 6 0 0 1 6-6h308a6 6 0 0 1 6 6v124a6 6 0 0 1-6 6h-308a6 6 0 0 1-6-6z" fill="#bb86fc"/><path d="M1320 672a6 6 0 0 1 6-6h308a6 6 0 0 1 6 6v124a6 6 0 0 1-6 6h-308a6 6 0 0 1-6-6zM1320 706h320M1380 706v96M1462.08 706v96" stroke="#9e66e4" stroke-width="2" fill="none"/><use xlink:href="#K" transform="matrix(1,0,0,1,1330,666) translate(69.625 23.6)"/><use xlink:href="#L" transform="matrix(1,0,0,1,1325,708.5) translate(13.524999999999999 17.1)"/><use xlink:href="#M" transform="matrix(1,0,0,1,1385,708.5) translate(0 17.1)"/><use xlink:href="#N" transform="matrix(1,0,0,1,1467.08,708.5) translate(0 17.1)"/><use xlink:href="#O" transform="matrix(1,0,0,1,1325,740.5) translate(9.5 17.1)"/><use xlink:href="#P" transform="matrix(1,0,0,1,1385,740.5) translate(0 17.1)"/><use xlink:href="#Q" transform="matrix(1,0,0,1,1467.08,740.5) translate(0 17.1)"/><use xlink:href="#O" transform="matrix(1,0,0,1,1325,772.5) translate(9.5 17.1)"/><use xlink:href="#R" transform="matrix(1,0,0,1,1385,772.5) translate(0 17.1)"/><use xlink:href="#S" transform="matrix(1,0,0,1,1467.08,772.5) translate(0 17.1)"/><path d="M1180.96 892.33H1224a6 6 0 0 0 6-6v-158.4a6 6 0 0 1 6-6h44.53" stroke="#03dac6" stroke-width="3" fill="none"/><path d="M1170.96 902.33v-20M1160.96 892.33h20M1180.96 902.33v-20M1309.03 711.93v20M1319.03 721.93h-20M1299.03 721.93c0 5.52-4.48 10-10 10s-10-4.48-10-10c0-5.53 4.48-10 10-10s10 4.47 10 10" stroke="#03dac6" stroke-width="3" fill="#fff"/><path d="M1320 832a6 6 0 0 1 6-6h308a6 6 0 0 1 6 6v188a6 6 0 0 1-6 6h-308a6 6 0 0 1-6-6z" fill="#bb86fc"/><path d="M1320 832a6 6 0 0 1 6-6h308a6 6 0 0 1 6 6v188a6 6 0 0 1-6 6h-308a6 6 0 0 1-6-6zM1320 866h320M1380 866v160M1494.56 866v160" stroke="#9e66e4" stroke-width="2" fill="none"/><use xlink:href="#T" transform="matrix(1,0,0,1,1330,826) translate(67.57499999999999 23.6)"/><use xlink:href="#L" transform="matrix(1,0,0,1,1325,868.5) translate(13.524999999999999 17.1)"/><use xlink:href="#M" transform="matrix(1,0,0,1,1385,868.5) translate(0 17.1)"/><use xlink:href="#N" transform="matrix(1,0,0,1,1499.56,868.5) translate(0 17.1)"/><use xlink:href="#O" transform="matrix(1,0,0,1,1325,900.5) translate(9.5 17.1)"/><use xlink:href="#U" transform="matrix(1,0,0,1,1385,900.5) translate(0 17.1)"/><use xlink:href="#Q" transform="matrix(1,0,0,1,1499.56,900.5) translate(0 17.1)"/><use xlink:href="#O" transform="matrix(1,0,0,1,1325,932.5) translate(9.5 17.1)"/><use xlink:href="#V" transform="matrix(1,0,0,1,1385,932.5) translate(0 17.1)"/><use xlink:href="#Q" transform="matrix(1,0,0,1,1499.56,932.5) translate(0 17.1)"/><use xlink:href="#O" transform="matrix(1,0,0,1,1325,964.5) translate(9.5 17.1)"/><use xlink:href="#R" transform="matrix(1,0,0,1,1385,964.5) translate(0 17.1)"/><use xlink:href="#S" transform="matrix(1,0,0,1,1499.56,964.5) translate(0 17.1)"/><use xlink:href="#O" transform="matrix(1,0,0,1,1325,996.5) translate(9.5 17.1)"/><use xlink:href="#W" transform="matrix(1,0,0,1,1385,996.5) translate(0 17.1)"/><use xlink:href="#X" transform="matrix(1,0,0,1,1499.56,996.5) translate(0 17.1)"/><path d="M1180.96 929.5H1234a6 6 0 0 0 6-6v-35.77a6 6 0 0 1 6-6h34.52" stroke="#03dac6" stroke-width="3" fill="none"/><path d="M1170.96 939.5v-20M1160.96 929.5h20M1180.96 939.5v-20M1309.02 871.73v20M1319.02 881.73h-20M1299.02 881.73c0 5.52-4.48 10-10 10s-10-4.48-10-10 4.48-10 10-10 10 4.48 10 10" stroke="#03dac6" stroke-width="3" fill="#fff"/><path d="M100 926a6 6 0 0 1 6-6h368a6 6 0 0 1 6 6v284a6 6 0 0 1-6 6H106a6 6 0 0 1-6-6z" fill="#bb86fc"/><path d="M100 926a6 6 0 0 1 6-6h368a6 6 0 0 1 6 6v284a6 6 0 0 1-6 6H106a6 6 0 0 1-6-6zM100 960h380M160 960v256M318.27 960v256" stroke="#9e66e4" stroke-width="2" fill="none"/><use xlink:href="#Y" transform="matrix(1,0,0,1,110,920) translate(141.525 23.6)"/><use xlink:href="#Z" transform="matrix(1,0,0,1,105,962.5) translate(13 17.1)"/><use xlink:href="#aa" transform="matrix(1,0,0,1,165,962.5) translate(0 17.1)"/><use xlink:href="#N" transform="matrix(1,0,0,1,323.26666666666665,962.5) translate(0 17.1)"/><use xlink:href="#L" transform="matrix(1,0,0,1,105,994.5) translate(13.524999999999999 17.1)"/><use xlink:href="#ab" transform="matrix(1,0,0,1,165,994.5) translate(0 17.1)"/><use xlink:href="#N" transform="matrix(1,0,0,1,323.26666666666665,994.5) translate(0 17.1)"/><use xlink:href="#O" transform="matrix(1,0,0,1,105,1026.5) translate(9.5 17.1)"/><use xlink:href="#ac" transform="matrix(1,0,0,1,165,1026.5) translate(0 17.1)"/><use xlink:href="#Q" transform="matrix(1,0,0,1,323.26666666666665,1026.5) translate(0 17.1)"/><use xlink:href="#O" transform="matrix(1,0,0,1,105,1058.5) translate(9.5 17.1)"/><use xlink:href="#ad" transform="matrix(1,0,0,1,165,1058.5) translate(0 17.1)"/><use xlink:href="#Q" transform="matrix(1,0,0,1,323.26666666666665,1058.5) translate(0 17.1)"/><use xlink:href="#O" transform="matrix(1,0,0,1,105,1090.5) translate(9.5 17.1)"/><use xlink:href="#ae" transform="matrix(1,0,0,1,165,1090.5) translate(0 17.1)"/><use xlink:href="#X" transform="matrix(1,0,0,1,323.26666666666665,1090.5) translate(0 17.1)"/><use xlink:href="#O" transform="matrix(1,0,0,1,105,1122.5) translate(9.5 17.1)"/><use xlink:href="#af" transform="matrix(1,0,0,1,165,1122.5) translate(0 17.1)"/><use xlink:href="#X" transform="matrix(1,0,0,1,323.26666666666665,1122.5) translate(0 17.1)"/><use xlink:href="#O" transform="matrix(1,0,0,1,105,1154.5) translate(9.5 17.1)"/><use xlink:href="#ag" transform="matrix(1,0,0,1,165,1154.5) translate(0 17.1)"/><use xlink:href="#ah" transform="matrix(1,0,0,1,323.26666666666665,1154.5) translate(0 17.1)"/><use xlink:href="#O" transform="matrix(1,0,0,1,105,1186.5) translate(9.5 17.1)"/><use xlink:href="#ai" transform="matrix(1,0,0,1,165,1186.5) translate(0 17.1)"/><use xlink:href="#ah" transform="matrix(1,0,0,1,323.26666666666665,1186.5) translate(0 17.1)"/><path d="M739 817.96H636a6 6 0 0 0-6 6v145.6a6 6 0 0 1-6 6H519.44" stroke="#03dac6" stroke-width="3" fill="none"/><path d="M749 807.96v20M759 817.96h-20M739 807.96v20" stroke="#03dac6" stroke-width="3" fill="#fff"/><path d="M481.6 965.55l20 10-20 10" stroke="#03dac6" stroke-width="3" fill="#fff" fill-opacity="0"/><path d="M481.6 975.55h20M521.6 975.55c0 5.52-4.47 10-10 10-5.5 0-10-4.48-10-10 0-5.53 4.5-10 10-10 5.53 0 10 4.47 10 10" stroke="#03dac6" stroke-width="3" fill="#fff"/><path d="M520 1222a6 6 0 0 1 6-6h268a6 6 0 0 1 6 6v102a6 6 0 0 1-6 6H526a6 6 0 0 1-6-6z" fill="#bb86fc"/><path d="M520 1222a6 6 0 0 1 6-6h268a6 6 0 0 1 6 6v102a6 6 0 0 1-6 6H526a6 6 0 0 1-6-6zM520 1256h280M580 1256v74M704.8 1256v74" stroke="#9e66e4" stroke-width="2" fill="none"/><use xlink:href="#aj" transform="matrix(1,0,0,1,530,1216) translate(62.87037037037038 24.444444444444443)"/><use xlink:href="#r" transform="matrix(1,0,0,1,525,1258.5) translate(10.833333333333334 20.444444444444443)"/><use xlink:href="#ak" transform="matrix(1,0,0,1,585,1258.5) translate(0 20.444444444444443)"/><use xlink:href="#d" transform="matrix(1,0,0,1,709.8000000000001,1258.5) translate(0 20.444444444444443)"/><use xlink:href="#r" transform="matrix(1,0,0,1,525,1295.5) translate(10.833333333333334 20.444444444444443)"/><use xlink:href="#v" transform="matrix(1,0,0,1,585,1295.5) translate(0 20.444444444444443)"/><use xlink:href="#d" transform="matrix(1,0,0,1,709.8000000000001,1295.5) translate(0 20.444444444444443)"/><path d="M480.54 1274.5H296a6 6 0 0 1-6-6v-31.54" stroke="#03dac6" stroke-width="3" fill="none"/><path d="M518.37 1284.5l-20-10 20-10" stroke="#03dac6" stroke-width="3" fill="#fff" fill-opacity="0"/><path d="M518.37 1274.5h-20M498.37 1274.5c0 5.53-4.48 10-10 10-5.53 0-10-4.47-10-10 0-5.5 4.47-10 10-10 5.52 0 10 4.5 10 10M280 1226.96h20M290 1216.96v20M280 1236.96h20" stroke="#03dac6" stroke-width="3" fill="#fff"/><path d="M839.5 1311.77H954a6 6 0 0 0 6-6v-188.8" stroke="#03dac6" stroke-width="3" fill="none"/><path d="M801.66 1301.77l20 10-20 10" stroke="#03dac6" stroke-width="3" fill="#fff" fill-opacity="0"/><path d="M801.66 1311.77h20M841.66 1311.77c0 5.53-4.48 10-10 10s-10-4.47-10-10c0-5.52 4.48-10 10-10s10 4.48 10 10M950 1106.96h20M960 1096.96v20M950 1116.96h20" stroke="#03dac6" stroke-width="3" fill="#fff"/><path d="M1320 1066a6 6 0 0 1 6-6h308a6 6 0 0 1 6 6v284a6 6 0 0 1-6 6h-308a6 6 0 0 1-6-6z" fill="#bb86fc"/><path d="M1320 1066a6 6 0 0 1 6-6h308a6 6 0 0 1 6 6v284a6 6 0 0 1-6 6h-308a6 6 0 0 1-6-6zM1320 1100h320M1380 1100v256M1486.8 1100v256" stroke="#9e66e4" stroke-width="2" fill="none"/><use xlink:href="#al" transform="matrix(1,0,0,1,1330,1060) translate(102.05 23.6)"/><use xlink:href="#Z" transform="matrix(1,0,0,1,1325,1102.5) translate(13 17.1)"/><use xlink:href="#aa" transform="matrix(1,0,0,1,1385,1102.5) translate(0 17.1)"/><use xlink:href="#N" transform="matrix(1,0,0,1,1491.8000000000002,1102.5) translate(0 17.1)"/><use xlink:href="#L" transform="matrix(1,0,0,1,1325,1134.5) translate(13.524999999999999 17.1)"/><use xlink:href="#am" transform="matrix(1,0,0,1,1385,1134.5) translate(0 17.1)"/><use xlink:href="#N" transform="matrix(1,0,0,1,1491.8000000000002,1134.5) translate(0 17.1)"/><use xlink:href="#L" transform="matrix(1,0,0,1,1325,1166.5) translate(13.524999999999999 17.1)"/><use xlink:href="#an" transform="matrix(1,0,0,1,1385,1166.5) translate(0 17.1)"/><use xlink:href="#N" transform="matrix(1,0,0,1,1491.8000000000002,1166.5) translate(0 17.1)"/><use xlink:href="#L" transform="matrix(1,0,0,1,1325,1198.5) translate(13.524999999999999 17.1)"/><use xlink:href="#ao" transform="matrix(1,0,0,1,1385,1198.5) translate(0 17.1)"/><use xlink:href="#N" transform="matrix(1,0,0,1,1491.8000000000002,1198.5) translate(0 17.1)"/><use xlink:href="#O" transform="matrix(1,0,0,1,1325,1230.5) translate(9.5 17.1)"/><use xlink:href="#U" transform="matrix(1,0,0,1,1385,1230.5) translate(0 17.1)"/><use xlink:href="#Q" transform="matrix(1,0,0,1,1491.8000000000002,1230.5) translate(0 17.1)"/><use xlink:href="#O" transform="matrix(1,0,0,1,1325,1262.5) translate(9.5 17.1)"/><use xlink:href="#V" transform="matrix(1,0,0,1,1385,1262.5) translate(0 17.1)"/><use xlink:href="#Q" transform="matrix(1,0,0,1,1491.8000000000002,1262.5) translate(0 17.1)"/><use xlink:href="#O" transform="matrix(1,0,0,1,1325,1294.5) translate(9.5 17.1)"/><use xlink:href="#ae" transform="matrix(1,0,0,1,1385,1294.5) translate(0 17.1)"/><use xlink:href="#X" transform="matrix(1,0,0,1,1491.8000000000002,1294.5) translate(0 17.1)"/><use xlink:href="#O" transform="matrix(1,0,0,1,1325,1326.5) translate(9.5 17.1)"/><use xlink:href="#af" transform="matrix(1,0,0,1,1385,1326.5) translate(0 17.1)"/><use xlink:href="#X" transform="matrix(1,0,0,1,1491.8000000000002,1326.5) translate(0 17.1)"/><path d="M1280.52 1148H1236a6 6 0 0 1-6-6v-132.13a6 6 0 0 0-6-6h-43.02" stroke="#03dac6" stroke-width="3" fill="none"/><path d="M1318.35 1158l-20-10 20-10" stroke="#03dac6" stroke-width="3" fill="#fff" fill-opacity="0"/><path d="M1318.35 1148h-20M1298.35 1148c0 5.52-4.48 10-10 10s-10-4.48-10-10 4.48-10 10-10 10 4.48 10 10M1170.98 1013.87v-20M1160.98 1003.87h20M1180.98 1013.87v-20" stroke="#03dac6" stroke-width="3" fill="#fff"/><path d="M1280.53 1180H1226a6 6 0 0 1-6-6v-126.94a6 6 0 0 0-6-6h-33" stroke="#03dac6" stroke-width="3" fill="none"/><path d="M1318.36 1190l-20-10 20-10" stroke="#03dac6" stroke-width="3" fill="#fff" fill-opacity="0"/><path d="M1318.36 1180h-20M1298.36 1180c0 5.52-4.48 10-10 10s-10-4.48-10-10 4.48-10 10-10 10 4.48 10 10M1171 1051.06v-20M1161 1041.06h20M1181 1051.06v-20" stroke="#03dac6" stroke-width="3" fill="#fff"/><path d="M1662.38 1212l.12 1.5h-20.03v-3h20.03zm82.8-65.4l1.14.26 1.1.45 1 .63.9.76.75.9.62 1 .44 1.08.3 1.2.06 53.18-.1 1.1-.26 1.16-.45 1.1-.63 1-.76.9-.9.75-1 .62-1.08.44-1.2.3h-8.94l.1-1.44-.12-1.57h8.6l.63-.15.64-.27.6-.36.54-.46.46-.54.37-.6.28-.65.16-.7.06-.76-.07-52.7-.15-.63-.27-.64-.36-.6-.46-.54-.54-.46-.6-.37-.65-.28-.7-.16-.76-.06h-82.37v-3h82.5z" stroke="#03dac6" stroke-width=".05" fill="#03dac6"/><path d="M1660.07 1152.64l-14.27-4.64 14.27-4.64z" fill="#03dac6"/><path d="M1661.57 1154.7l-20.62-6.7 20.62-6.7zm-10.9-6.7l7.9 2.57v-5.14z" stroke="#03dac6" stroke-width=".05" fill="#03dac6"/><path d="M1642.5 1213.5h-1.54v-3h1.54z" fill="#03dac6"/><path d="M1642.53 1213.53h-1.6v-3.06h1.6zm-1.54-3v2.94h1.48v-2.94z" stroke="#03dac6" stroke-width=".05" fill="#03dac6"/><path d="M1662.38 1212l.12 1.5h-20.03v-3h20.03zm82.8-33.4l1.14.26 1.1.45 1 .63.9.76.75.9.62 1 .44 1.08.3 1.2.06 21.18-.1 1.1-.26 1.16-.45 1.1-.63 1-.76.9-.9.75-1 .62-1.08.44-1.2.3h-8.94l.1-1.44-.12-1.57h8.6l.63-.15.64-.27.6-.36.54-.46.46-.54.37-.6.28-.65.16-.7.06-.76-.07-20.7-.15-.63-.27-.64-.36-.6-.46-.54-.54-.46-.6-.37-.65-.28-.7-.16-.76-.06h-82.36v-3h82.48z" stroke="#03dac6" stroke-width=".05" fill="#03dac6"/><path d="M1660.08 1184.64l-14.27-4.64 14.28-4.64z" fill="#03dac6"/><path d="M1661.58 1186.7l-20.62-6.7 20.62-6.7zm-10.92-6.7l7.92 2.57v-5.14z" stroke="#03dac6" stroke-width=".05" fill="#03dac6"/><path d="M1642.5 1213.5h-1.54v-3h1.54z" fill="#03dac6"/><path d="M1642.53 1213.53h-1.6v-3.06h1.6zm-1.54-3v2.94h1.48v-2.94z" stroke="#03dac6" stroke-width=".05" fill="#03dac6"/><path d="M1663.88 1212a14.8 14.8 0 0 1 14.8-14.8h41.3a14.8 14.8 0 0 1 14.8 14.8 14.8 14.8 0 0 1-14.8 14.8h-41.3a14.8 14.8 0 0 1-14.8-14.8z" stroke="#03dac6" stroke-width="3" fill-opacity="0"/><use xlink:href="#ap" transform="matrix(1,0,0,1,1675.8833333333334,1201.199999844528) translate(0 14.4)"/><defs><path fill="#fff" d="M240-154L185 4h-14l-41-109L90 4H77L20-153c-7-3-23 1-20-12h79v8l-27 4L91-41l40-108h14l40 109 38-113-28-4v-8h63v8" id="aq"/><path fill="#fff" d="M125-118c4-37-41-34-68-26v132l23 4v8H8C5-13 21-9 28-12v-141c-7-3-23 1-20-12h47l2 13c31-23 98-29 98 31v109c7 3 23-1 20 12h-72v-8l22-4v-106" id="ar"/><path fill="#fff" d="M-3 46V28h186v18H-3" id="as"/><path fill="#fff" d="M124-13C89 8 26 15 26-45v-108c-8-3-24 2-21-12h50v118c-3 37 42 32 69 25v-131l-25-4v-8h54v153c8 3 24-2 21 12h-48" id="at"/><path fill="#fff" d="M41-130c7 48 86 23 86 84 0 56-69 57-112 41v-40c20 0 9 29 31 31 35 19 77-26 41-50-27-18-72-13-72-59 0-50 58-52 100-41v36c-19 1-8-25-28-25-21-7-50-1-46 23" id="au"/><path fill="#fff" d="M84-170c49 0 66 33 63 87H46c-8 60 38 80 95 63v10C128-2 108 4 88 4 34 4 14-29 14-84c-1-54 22-86 70-86zm33 73c12-57-57-82-69-24-1 7-2 15-2 24h71" id="av"/><path fill="#fff" d="M57-145c16-10 35-24 60-25v45c-19 1-8-30-40-17l-20 6v124l29 4v8H7v-8l21-4v-141c-8-3-24 2-21-12h48" id="aw"/><g id="a"><use transform="matrix(0.06172839506172839,0,0,0.06172839506172839,0,0)" xlink:href="#aq"/><use transform="matrix(0.06172839506172839,0,0,0.06172839506172839,15.987654320987653,0)" xlink:href="#ar"/><use transform="matrix(0.06172839506172839,0,0,0.06172839506172839,27.098765432098766,0)" xlink:href="#as"/><use transform="matrix(0.06172839506172839,0,0,0.06172839506172839,38.20987654320987,0)" xlink:href="#at"/><use transform="matrix(0.06172839506172839,0,0,0.06172839506172839,49.32098765432099,0)" xlink:href="#au"/><use transform="matrix(0.06172839506172839,0,0,0.06172839506172839,57.96296296296296,0)" xlink:href="#av"/><use transform="matrix(0.06172839506172839,0,0,0.06172839506172839,67.77777777777777,0)" xlink:href="#aw"/></g><path fill="#fff" d="M75-108c48 3 76-12 76-58s-28-57-76-54v112zm111-58c-1 60-46 78-111 74v78l37 5v9H13v-9l28-5v-208l-31-4v-10c81 1 178-14 176 70" id="ax"/><path fill="#fff" d="M238-236v10l-27 4-81 79L231-14l25 5v9h-57l-93-119-31 25v80l33 5v9H10v-9l31-5v-208l-31-4v-10h95v10l-30 4v111l112-111-23-4v-10h74" id="ay"/><g id="b"><use transform="matrix(0.06172839506172839,0,0,0.06172839506172839,0,0)" xlink:href="#ax"/><use transform="matrix(0.06172839506172839,0,0,0.06172839506172839,12.345679012345679,0)" xlink:href="#ay"/></g><path fill="#fff" d="M47-200c-23 0-25-39 0-38 13 0 18 7 20 19-1 11-8 19-20 19zM65-12l28 4v8H8v-8l28-4v-141l-24-4v-8h53v153" id="az"/><path fill="#fff" d="M13-81c0-71 46-101 114-85l-1-72-28-4v-8h57v238c8 3 24-2 21 12h-47l-2-12C80 23 13-1 13-81zm77-74c-37 1-44 33-45 74 0 38 9 66 45 66 14 0 27-3 36-7v-130c-10-1-24-3-36-3" id="aA"/><g id="c"><use transform="matrix(0.06172839506172839,0,0,0.06172839506172839,0,0)" xlink:href="#az"/><use transform="matrix(0.06172839506172839,0,0,0.06172839506172839,6.172839506172839,0)" xlink:href="#aA"/></g><path fill="#fff" d="M75-131c50 2 93 3 93-48 0-46-48-41-93-41v89zm0 115c55 4 111 6 111-51 0-53-58-48-111-48v99zm148-52C223 24 102-3 10 0v-9l31-5v-208l-31-4v-10c77 6 193-24 194 56 0 33-20 48-48 54 36 5 67 20 67 58" id="aB"/><path fill="#fff" d="M77-14l30 5v9H13v-9l30-5v-208l-30-4v-10h94v10l-30 4v208" id="aC"/><path fill="#fff" d="M52-115c0 90 69 126 140 93v-67l-30-5v-9h87v9l-23 5v77c-27 8-56 16-90 16C59 2 15-37 15-115c-1-82 41-123 122-123 31 0 59 4 83 10v51h-12l-5-29c-15-12-38-18-65-18-66-1-86 42-86 109" id="aD"/><path fill="#fff" d="M203-222l-32-4v-10h81v10l-31 4V0h-17L59-212v198l32 5v9H10v-9l31-5v-208l-31-4v-10h72L203-61v-161" id="aE"/><path fill="#fff" d="M55 0v-9l38-5v-207c-22 1-53 0-70 4l-5 37H7v-56h207v56h-12l-5-37-70-3v206l37 5v9H55" id="aF"/><g id="d"><use transform="matrix(0.06172839506172839,0,0,0.06172839506172839,0,0)" xlink:href="#aB"/><use transform="matrix(0.06172839506172839,0,0,0.06172839506172839,14.814814814814813,0)" xlink:href="#aC"/><use transform="matrix(0.06172839506172839,0,0,0.06172839506172839,22.160493827160494,0)" xlink:href="#aD"/><use transform="matrix(0.06172839506172839,0,0,0.06172839506172839,38.148148148148145,0)" xlink:href="#aC"/><use transform="matrix(0.06172839506172839,0,0,0.06172839506172839,45.49382716049382,0)" xlink:href="#aE"/><use transform="matrix(0.06172839506172839,0,0,0.06172839506172839,61.481481481481474,0)" xlink:href="#aF"/></g><path fill="#fff" d="M161-154L85 37C75 66 49 86 8 75V39c18-2 6 24 29 21 30-4 38-32 47-58L21-153c-7-3-20 0-17-12h77v8l-26 4 45 116 43-116-26-4v-8h62v8" id="aG"/><g id="e"><use transform="matrix(0.06172839506172839,0,0,0.06172839506172839,0,0)" xlink:href="#ay"/><use transform="matrix(0.06172839506172839,0,0,0.06172839506172839,15.987654320987653,0)" xlink:href="#av"/><use transform="matrix(0.06172839506172839,0,0,0.06172839506172839,25.80246913580247,0)" xlink:href="#aG"/></g><path fill="#fff" d="M103-236c-39-15-35 32-34 71h44v15H69v136l35 6v8H15v-8l25-6v-136H11v-9l29-7c-6-59 23-100 80-84v36c-15 2-12-14-17-22" id="aH"/><path fill="#fff" d="M54-38c-1 25 24 26 44 20v12C71 10 25 9 25-35v-115H4c-2-14 14-10 21-15l18-38h11v38h38v15H54v112" id="aI"/><path fill="#fff" d="M32-163c41-10 102-14 102 39v112c8 3 24-2 21 12h-45l-4-17C83 13 3 13 13-46c-2-50 45-50 92-51 4-36-5-70-42-56-6 2-12 4-16 6-4 7 0 23-15 20v-36zM42-47c0 41 41 33 63 22v-59c-34 1-63-1-63 37" id="aJ"/><path fill="#fff" d="M126-118c4-37-42-32-68-25v131l24 4v8H8C5-13 21-9 28-12v-141c-7-3-23 1-20-12h48l1 13c22-15 77-30 92 2 32-22 104-36 104 29v109c8 3 24-2 21 12h-75v-8l25-4v-106c3-39-45-31-72-24 7 37 1 88 3 130l25 4v8h-78v-8l24-4v-106" id="aK"/><g id="f"><use transform="matrix(0.06172839506172839,0,0,0.06172839506172839,0,0)" xlink:href="#aH"/><use transform="matrix(0.06172839506172839,0,0,0.06172839506172839,7.345679012345679,0)" xlink:href="#az"/><use transform="matrix(0.06172839506172839,0,0,0.06172839506172839,13.518518518518519,0)" xlink:href="#aw"/><use transform="matrix(0.06172839506172839,0,0,0.06172839506172839,20.864197530864196,0)" xlink:href="#au"/><use transform="matrix(0.06172839506172839,0,0,0.06172839506172839,29.50617283950617,0)" xlink:href="#aI"/><use transform="matrix(0.06172839506172839,0,0,0.06172839506172839,35.67901234567901,0)" xlink:href="#as"/><use transform="matrix(0.06172839506172839,0,0,0.06172839506172839,46.79012345679013,0)" xlink:href="#ar"/><use transform="matrix(0.06172839506172839,0,0,0.06172839506172839,57.90123456790124,0)" xlink:href="#aJ"/><use transform="matrix(0.06172839506172839,0,0,0.06172839506172839,67.71604938271605,0)" xlink:href="#aK"/><use transform="matrix(0.06172839506172839,0,0,0.06172839506172839,85,0)" xlink:href="#av"/></g><path fill="#fff" d="M256-236v10l-26 4L135 5h-9L31-222l-27-4v-10h95v10l-31 4 71 174 71-174-31-4v-10h77" id="aL"/><path fill="#fff" d="M81-9v9H4v-9l26-5 81-224h33l83 224 30 5v9h-99v-9l31-5-23-68H73L49-14zm38-203L78-98h82" id="aM"/><path fill="#fff" d="M199-173c-1 36-21 56-49 65l64 94 26 5v9h-57l-66-103H75v89l35 5v9H13v-9l28-5v-208l-31-4v-10c80 4 190-20 189 63zM75-119c50 2 89-1 89-51 0-49-39-52-89-50v101" id="aN"/><path fill="#fff" d="M52-115c0 93 80 130 150 87l7-35h11l-1 55c-23 7-52 12-83 12C60 4 19-37 15-115c-5-113 97-141 201-114l1 51h-12l-5-30c-15-9-39-16-62-16-66 0-86 41-86 109" id="aO"/><path fill="#fff" d="M10 0v-9l31-5v-208l-31-4v-10h95v10l-30 4v93h110v-93l-30-4v-10h94v10l-30 4v208l30 5v9h-94v-9l30-5v-99H75v99l30 5v9H10" id="aP"/><g id="g"><use transform="matrix(0.06172839506172839,0,0,0.06172839506172839,0,0)" xlink:href="#aL"/><use transform="matrix(0.06172839506172839,0,0,0.06172839506172839,13.148148148148147,0)" xlink:href="#aM"/><use transform="matrix(0.06172839506172839,0,0,0.06172839506172839,29.1358024691358,0)" xlink:href="#aN"/><use transform="matrix(0.06172839506172839,0,0,0.06172839506172839,43.95061728395061,0)" xlink:href="#aO"/><use transform="matrix(0.06172839506172839,0,0,0.06172839506172839,58.76543209876543,0)" xlink:href="#aP"/><use transform="matrix(0.06172839506172839,0,0,0.06172839506172839,74.75308641975309,0)" xlink:href="#aM"/><use transform="matrix(0.06172839506172839,0,0,0.06172839506172839,90.74074074074075,0)" xlink:href="#aN"/></g><path fill="#fff" d="M65-12l28 4v8H7v-8l28-4v-226l-28-4v-8h58v238" id="aQ"/><g id="h"><use transform="matrix(0.06172839506172839,0,0,0.06172839506172839,0,0)" xlink:href="#aQ"/><use transform="matrix(0.06172839506172839,0,0,0.06172839506172839,6.172839506172839,0)" xlink:href="#aJ"/><use transform="matrix(0.06172839506172839,0,0,0.06172839506172839,15.987654320987653,0)" xlink:href="#au"/><use transform="matrix(0.06172839506172839,0,0,0.06172839506172839,24.62962962962963,0)" xlink:href="#aI"/><use transform="matrix(0.06172839506172839,0,0,0.06172839506172839,30.80246913580247,0)" xlink:href="#as"/><use transform="matrix(0.06172839506172839,0,0,0.06172839506172839,41.91358024691358,0)" xlink:href="#ar"/><use transform="matrix(0.06172839506172839,0,0,0.06172839506172839,53.0246913580247,0)" xlink:href="#aJ"/><use transform="matrix(0.06172839506172839,0,0,0.06172839506172839,62.83950617283951,0)" xlink:href="#aK"/><use transform="matrix(0.06172839506172839,0,0,0.06172839506172839,80.12345679012347,0)" xlink:href="#av"/></g><path fill="#fff" d="M141-152c28 39 5 97-54 97-9 0-20-2-27-3L49-35c29 22 130-14 124 52-4 45-38 57-88 61C21 83-8 26 45-2 33-6 22-15 21-31l28-31c-19-9-28-26-28-51-2-51 53-65 100-52l38-20 7 8zM85 64c35 0 61-11 61-42 0-35-57-17-89-21-9 8-16 19-17 34 0 25 19 29 45 29zM52-113c1 26 7 46 35 44 28-1 34-16 35-44 0-26-6-43-34-43s-36 17-36 43" id="aR"/><g id="i"><use transform="matrix(0.06172839506172839,0,0,0.06172839506172839,0,0)" xlink:href="#aR"/><use transform="matrix(0.06172839506172839,0,0,0.06172839506172839,11.11111111111111,0)" xlink:href="#av"/><use transform="matrix(0.06172839506172839,0,0,0.06172839506172839,20.925925925925924,0)" xlink:href="#ar"/><use transform="matrix(0.06172839506172839,0,0,0.06172839506172839,32.03703703703704,0)" xlink:href="#aA"/><use transform="matrix(0.06172839506172839,0,0,0.06172839506172839,43.14814814814815,0)" xlink:href="#av"/><use transform="matrix(0.06172839506172839,0,0,0.06172839506172839,52.96296296296297,0)" xlink:href="#aw"/></g><path fill="#fff" d="M45-84c0 64 52 80 104 63 1 25-30 25-55 25-56 0-80-32-80-88 0-76 62-98 131-80v46h-10c-5-15-4-31-23-35-47-10-67 21-67 69" id="aS"/><g id="j"><use transform="matrix(0.06172839506172839,0,0,0.06172839506172839,0,0)" xlink:href="#aH"/><use transform="matrix(0.06172839506172839,0,0,0.06172839506172839,7.345679012345679,0)" xlink:href="#aJ"/><use transform="matrix(0.06172839506172839,0,0,0.06172839506172839,17.160493827160494,0)" xlink:href="#aS"/><use transform="matrix(0.06172839506172839,0,0,0.06172839506172839,26.97530864197531,0)" xlink:href="#at"/><use transform="matrix(0.06172839506172839,0,0,0.06172839506172839,38.08641975308642,0)" xlink:href="#aQ"/><use transform="matrix(0.06172839506172839,0,0,0.06172839506172839,44.25925925925926,0)" xlink:href="#aI"/><use transform="matrix(0.06172839506172839,0,0,0.06172839506172839,50.4320987654321,0)" xlink:href="#aG"/></g><g id="k"><use transform="matrix(0.06172839506172839,0,0,0.06172839506172839,0,0)" xlink:href="#av"/><use transform="matrix(0.06172839506172839,0,0,0.06172839506172839,9.814814814814815,0)" xlink:href="#aK"/><use transform="matrix(0.06172839506172839,0,0,0.06172839506172839,27.098765432098766,0)" xlink:href="#aJ"/><use transform="matrix(0.06172839506172839,0,0,0.06172839506172839,36.91358024691358,0)" xlink:href="#az"/><use transform="matrix(0.06172839506172839,0,0,0.06172839506172839,43.086419753086425,0)" xlink:href="#aQ"/></g><path fill="#fff" d="M90-170c52 0 76 32 76 87 0 54-24 87-77 87-51 0-75-34-75-87 0-54 24-87 76-87zM89-10c39 0 46-35 46-73 0-39-7-73-46-73-39 1-44 34-44 73s6 72 44 73" id="aT"/><g id="l"><use transform="matrix(0.06172839506172839,0,0,0.06172839506172839,0,0)" xlink:href="#at"/><use transform="matrix(0.06172839506172839,0,0,0.06172839506172839,11.11111111111111,0)" xlink:href="#au"/><use transform="matrix(0.06172839506172839,0,0,0.06172839506172839,19.753086419753085,0)" xlink:href="#av"/><use transform="matrix(0.06172839506172839,0,0,0.06172839506172839,29.5679012345679,0)" xlink:href="#aw"/><use transform="matrix(0.06172839506172839,0,0,0.06172839506172839,36.913580246913575,0)" xlink:href="#as"/><use transform="matrix(0.06172839506172839,0,0,0.06172839506172839,48.02469135802468,0)" xlink:href="#aw"/><use transform="matrix(0.06172839506172839,0,0,0.06172839506172839,55.37037037037036,0)" xlink:href="#aT"/><use transform="matrix(0.06172839506172839,0,0,0.06172839506172839,66.48148148148147,0)" xlink:href="#aQ"/><use transform="matrix(0.06172839506172839,0,0,0.06172839506172839,72.6543209876543,0)" xlink:href="#av"/></g><path fill="#fff" d="M166-85c3 67-44 102-111 85l1 64 29 4v9H6v-9l21-4v-217c-7-3-22 1-19-12h46l1 9c11-8 26-14 45-14 47 2 64 36 66 85zM56-13c53 14 83-14 78-72 7-53-33-79-78-60v132" id="aU"/><path fill="#fff" d="M126-119c3-38-42-31-69-25v132l23 4v8H7v-8l21-4v-226l-24-4v-8h53l-1 98c31-22 99-31 99 31v109c7 3 23-1 20 12h-71v-8l22-4v-107" id="aV"/><g id="m"><use transform="matrix(0.06172839506172839,0,0,0.06172839506172839,0,0)" xlink:href="#aU"/><use transform="matrix(0.06172839506172839,0,0,0.06172839506172839,11.11111111111111,0)" xlink:href="#aJ"/><use transform="matrix(0.06172839506172839,0,0,0.06172839506172839,20.925925925925924,0)" xlink:href="#au"/><use transform="matrix(0.06172839506172839,0,0,0.06172839506172839,29.5679012345679,0)" xlink:href="#au"/><use transform="matrix(0.06172839506172839,0,0,0.06172839506172839,38.20987654320987,0)" xlink:href="#aq"/><use transform="matrix(0.06172839506172839,0,0,0.06172839506172839,54.197530864197525,0)" xlink:href="#aT"/><use transform="matrix(0.06172839506172839,0,0,0.06172839506172839,65.30864197530863,0)" xlink:href="#aw"/><use transform="matrix(0.06172839506172839,0,0,0.06172839506172839,72.65432098765432,0)" xlink:href="#aA"/><use transform="matrix(0.06172839506172839,0,0,0.06172839506172839,83.76543209876543,0)" xlink:href="#as"/><use transform="matrix(0.06172839506172839,0,0,0.06172839506172839,94.87654320987654,0)" xlink:href="#aV"/><use transform="matrix(0.06172839506172839,0,0,0.06172839506172839,105.98765432098766,0)" xlink:href="#aJ"/><use transform="matrix(0.06172839506172839,0,0,0.06172839506172839,115.80246913580247,0)" xlink:href="#au"/><use transform="matrix(0.06172839506172839,0,0,0.06172839506172839,124.44444444444444,0)" xlink:href="#aV"/></g><g id="n"><use transform="matrix(0.06172839506172839,0,0,0.06172839506172839,0,0)" xlink:href="#aq"/><use transform="matrix(0.06172839506172839,0,0,0.06172839506172839,15.987654320987653,0)" xlink:href="#ar"/><use transform="matrix(0.06172839506172839,0,0,0.06172839506172839,27.098765432098766,0)" xlink:href="#as"/><use transform="matrix(0.06172839506172839,0,0,0.06172839506172839,38.20987654320987,0)" xlink:href="#aR"/><use transform="matrix(0.06172839506172839,0,0,0.06172839506172839,49.32098765432099,0)" xlink:href="#aw"/><use transform="matrix(0.06172839506172839,0,0,0.06172839506172839,56.666666666666664,0)" xlink:href="#aT"/><use transform="matrix(0.06172839506172839,0,0,0.06172839506172839,67.77777777777777,0)" xlink:href="#at"/><use transform="matrix(0.06172839506172839,0,0,0.06172839506172839,78.88888888888889,0)" xlink:href="#aU"/></g><g id="o"><use transform="matrix(0.06172839506172839,0,0,0.06172839506172839,0,0)" xlink:href="#aR"/><use transform="matrix(0.06172839506172839,0,0,0.06172839506172839,11.11111111111111,0)" xlink:href="#aw"/><use transform="matrix(0.06172839506172839,0,0,0.06172839506172839,18.45679012345679,0)" xlink:href="#aT"/><use transform="matrix(0.06172839506172839,0,0,0.06172839506172839,29.567901234567902,0)" xlink:href="#at"/><use transform="matrix(0.06172839506172839,0,0,0.06172839506172839,40.67901234567901,0)" xlink:href="#aU"/><use transform="matrix(0.06172839506172839,0,0,0.06172839506172839,51.79012345679013,0)" xlink:href="#as"/><use transform="matrix(0.06172839506172839,0,0,0.06172839506172839,62.90123456790124,0)" xlink:href="#ar"/><use transform="matrix(0.06172839506172839,0,0,0.06172839506172839,74.01234567901236,0)" xlink:href="#aJ"/><use transform="matrix(0.06172839506172839,0,0,0.06172839506172839,83.82716049382717,0)" xlink:href="#aK"/><use transform="matrix(0.06172839506172839,0,0,0.06172839506172839,101.11111111111111,0)" xlink:href="#av"/></g><g id="p"><use transform="matrix(0.06172839506172839,0,0,0.06172839506172839,0,0)" xlink:href="#aR"/><use transform="matrix(0.06172839506172839,0,0,0.06172839506172839,11.11111111111111,0)" xlink:href="#aw"/><use transform="matrix(0.06172839506172839,0,0,0.06172839506172839,18.45679012345679,0)" xlink:href="#aT"/><use transform="matrix(0.06172839506172839,0,0,0.06172839506172839,29.567901234567902,0)" xlink:href="#at"/><use transform="matrix(0.06172839506172839,0,0,0.06172839506172839,40.67901234567901,0)" xlink:href="#aU"/><use transform="matrix(0.06172839506172839,0,0,0.06172839506172839,51.79012345679013,0)" xlink:href="#as"/><use transform="matrix(0.06172839506172839,0,0,0.06172839506172839,62.90123456790124,0)" xlink:href="#aA"/><use transform="matrix(0.06172839506172839,0,0,0.06172839506172839,74.01234567901236,0)" xlink:href="#av"/><use transform="matrix(0.06172839506172839,0,0,0.06172839506172839,83.82716049382717,0)" xlink:href="#au"/><use transform="matrix(0.06172839506172839,0,0,0.06172839506172839,92.46913580246914,0)" xlink:href="#aS"/><use transform="matrix(0.06172839506172839,0,0,0.06172839506172839,102.28395061728395,0)" xlink:href="#aw"/><use transform="matrix(0.06172839506172839,0,0,0.06172839506172839,109.62962962962963,0)" xlink:href="#az"/><use transform="matrix(0.06172839506172839,0,0,0.06172839506172839,115.80246913580247,0)" xlink:href="#aU"/><use transform="matrix(0.06172839506172839,0,0,0.06172839506172839,126.91358024691357,0)" xlink:href="#aI"/><use transform="matrix(0.06172839506172839,0,0,0.06172839506172839,133.08641975308643,0)" xlink:href="#az"/><use transform="matrix(0.06172839506172839,0,0,0.06172839506172839,139.25925925925927,0)" xlink:href="#aT"/><use transform="matrix(0.06172839506172839,0,0,0.06172839506172839,150.37037037037038,0)" xlink:href="#ar"/></g><g id="q"><use transform="matrix(0.06172839506172839,0,0,0.06172839506172839,0,0)" xlink:href="#aS"/><use transform="matrix(0.06172839506172839,0,0,0.06172839506172839,9.814814814814815,0)" xlink:href="#aJ"/><use transform="matrix(0.06172839506172839,0,0,0.06172839506172839,19.62962962962963,0)" xlink:href="#aI"/><use transform="matrix(0.06172839506172839,0,0,0.06172839506172839,25.80246913580247,0)" xlink:href="#av"/><use transform="matrix(0.06172839506172839,0,0,0.06172839506172839,35.617283950617285,0)" xlink:href="#aR"/><use transform="matrix(0.06172839506172839,0,0,0.06172839506172839,46.72839506172839,0)" xlink:href="#aT"/><use transform="matrix(0.06172839506172839,0,0,0.06172839506172839,57.839506172839506,0)" xlink:href="#aw"/><use transform="matrix(0.06172839506172839,0,0,0.06172839506172839,65.18518518518519,0)" xlink:href="#aG"/></g><path fill="#fff" d="M75-106v92l39 5v9H13v-9l28-5v-208l-31-4v-10h177v57h-11l-6-38c-28-4-63-3-95-3v98h69l5-28h11v73h-11l-5-29H75" id="aW"/><g id="r"><use transform="matrix(0.06172839506172839,0,0,0.06172839506172839,0,0)" xlink:href="#aW"/><use transform="matrix(0.06172839506172839,0,0,0.06172839506172839,12.345679012345679,0)" xlink:href="#ay"/></g><g id="s"><use transform="matrix(0.06172839506172839,0,0,0.06172839506172839,0,0)" xlink:href="#aT"/><use transform="matrix(0.06172839506172839,0,0,0.06172839506172839,11.11111111111111,0)" xlink:href="#aq"/><use transform="matrix(0.06172839506172839,0,0,0.06172839506172839,27.098765432098766,0)" xlink:href="#ar"/><use transform="matrix(0.06172839506172839,0,0,0.06172839506172839,38.20987654320987,0)" xlink:href="#av"/><use transform="matrix(0.06172839506172839,0,0,0.06172839506172839,48.02469135802469,0)" xlink:href="#aw"/><use transform="matrix(0.06172839506172839,0,0,0.06172839506172839,55.37037037037037,0)" xlink:href="#as"/><use transform="matrix(0.06172839506172839,0,0,0.06172839506172839,66.48148148148148,0)" xlink:href="#az"/><use transform="matrix(0.06172839506172839,0,0,0.06172839506172839,72.65432098765432,0)" xlink:href="#aA"/></g><g id="t"><use transform="matrix(0.06172839506172839,0,0,0.06172839506172839,0,0)" xlink:href="#aq"/><use transform="matrix(0.06172839506172839,0,0,0.06172839506172839,15.987654320987653,0)" xlink:href="#ar"/><use transform="matrix(0.06172839506172839,0,0,0.06172839506172839,27.098765432098766,0)" xlink:href="#as"/><use transform="matrix(0.06172839506172839,0,0,0.06172839506172839,38.20987654320987,0)" xlink:href="#au"/><use transform="matrix(0.06172839506172839,0,0,0.06172839506172839,46.85185185185185,0)" xlink:href="#av"/><use transform="matrix(0.06172839506172839,0,0,0.06172839506172839,56.666666666666664,0)" xlink:href="#au"/><use transform="matrix(0.06172839506172839,0,0,0.06172839506172839,65.30864197530863,0)" xlink:href="#au"/><use transform="matrix(0.06172839506172839,0,0,0.06172839506172839,73.9506172839506,0)" xlink:href="#az"/><use transform="matrix(0.06172839506172839,0,0,0.06172839506172839,80.12345679012344,0)" xlink:href="#aT"/><use transform="matrix(0.06172839506172839,0,0,0.06172839506172839,91.23456790123456,0)" xlink:href="#ar"/></g><path fill="#fff" d="M60-80l68-73c-7-3-20 0-17-12h58c3 13-13 9-20 12l-47 48 60 93c7 3 21-1 18 12h-68c-3-12 9-9 15-12L82-83 60-60v48c7 3 21-1 18 12H10v-8l21-4v-226l-24-4v-8h53v170" id="aX"/><g id="u"><use transform="matrix(0.06172839506172839,0,0,0.06172839506172839,0,0)" xlink:href="#au"/><use transform="matrix(0.06172839506172839,0,0,0.06172839506172839,8.641975308641975,0)" xlink:href="#av"/><use transform="matrix(0.06172839506172839,0,0,0.06172839506172839,18.45679012345679,0)" xlink:href="#au"/><use transform="matrix(0.06172839506172839,0,0,0.06172839506172839,27.098765432098766,0)" xlink:href="#au"/><use transform="matrix(0.06172839506172839,0,0,0.06172839506172839,35.74074074074074,0)" xlink:href="#az"/><use transform="matrix(0.06172839506172839,0,0,0.06172839506172839,41.91358024691358,0)" xlink:href="#aT"/><use transform="matrix(0.06172839506172839,0,0,0.06172839506172839,53.0246913580247,0)" xlink:href="#ar"/><use transform="matrix(0.06172839506172839,0,0,0.06172839506172839,64.13580246913581,0)" xlink:href="#as"/><use transform="matrix(0.06172839506172839,0,0,0.06172839506172839,75.24691358024693,0)" xlink:href="#aX"/><use transform="matrix(0.06172839506172839,0,0,0.06172839506172839,86.35802469135804,0)" xlink:href="#av"/><use transform="matrix(0.06172839506172839,0,0,0.06172839506172839,96.17283950617285,0)" xlink:href="#aG"/></g><g id="v"><use transform="matrix(0.06172839506172839,0,0,0.06172839506172839,0,0)" xlink:href="#at"/><use transform="matrix(0.06172839506172839,0,0,0.06172839506172839,11.11111111111111,0)" xlink:href="#au"/><use transform="matrix(0.06172839506172839,0,0,0.06172839506172839,19.753086419753085,0)" xlink:href="#av"/><use transform="matrix(0.06172839506172839,0,0,0.06172839506172839,29.5679012345679,0)" xlink:href="#aw"/><use transform="matrix(0.06172839506172839,0,0,0.06172839506172839,36.913580246913575,0)" xlink:href="#as"/><use transform="matrix(0.06172839506172839,0,0,0.06172839506172839,48.02469135802468,0)" xlink:href="#az"/><use transform="matrix(0.06172839506172839,0,0,0.06172839506172839,54.197530864197525,0)" xlink:href="#aA"/></g><g id="w"><use transform="matrix(0.06172839506172839,0,0,0.06172839506172839,0,0)" xlink:href="#aq"/><use transform="matrix(0.06172839506172839,0,0,0.06172839506172839,15.987654320987653,0)" xlink:href="#ar"/><use transform="matrix(0.06172839506172839,0,0,0.06172839506172839,27.098765432098766,0)" xlink:href="#as"/><use transform="matrix(0.06172839506172839,0,0,0.06172839506172839,38.20987654320987,0)" xlink:href="#at"/><use transform="matrix(0.06172839506172839,0,0,0.06172839506172839,49.32098765432099,0)" xlink:href="#au"/><use transform="matrix(0.06172839506172839,0,0,0.06172839506172839,57.96296296296296,0)" xlink:href="#av"/><use transform="matrix(0.06172839506172839,0,0,0.06172839506172839,67.77777777777777,0)" xlink:href="#aw"/><use transform="matrix(0.06172839506172839,0,0,0.06172839506172839,75.12345679012346,0)" xlink:href="#as"/><use transform="matrix(0.06172839506172839,0,0,0.06172839506172839,86.23456790123457,0)" xlink:href="#aR"/><use transform="matrix(0.06172839506172839,0,0,0.06172839506172839,97.34567901234568,0)" xlink:href="#aw"/><use transform="matrix(0.06172839506172839,0,0,0.06172839506172839,104.69135802469137,0)" xlink:href="#aT"/><use transform="matrix(0.06172839506172839,0,0,0.06172839506172839,115.80246913580248,0)" xlink:href="#at"/><use transform="matrix(0.06172839506172839,0,0,0.06172839506172839,126.9135802469136,0)" xlink:href="#aU"/></g><g id="x"><use transform="matrix(0.06172839506172839,0,0,0.06172839506172839,0,0)" xlink:href="#aR"/><use transform="matrix(0.06172839506172839,0,0,0.06172839506172839,11.11111111111111,0)" xlink:href="#aw"/><use transform="matrix(0.06172839506172839,0,0,0.06172839506172839,18.45679012345679,0)" xlink:href="#aT"/><use transform="matrix(0.06172839506172839,0,0,0.06172839506172839,29.567901234567902,0)" xlink:href="#at"/><use transform="matrix(0.06172839506172839,0,0,0.06172839506172839,40.67901234567901,0)" xlink:href="#aU"/><use transform="matrix(0.06172839506172839,0,0,0.06172839506172839,51.79012345679013,0)" xlink:href="#as"/><use transform="matrix(0.06172839506172839,0,0,0.06172839506172839,62.90123456790124,0)" xlink:href="#az"/><use transform="matrix(0.06172839506172839,0,0,0.06172839506172839,69.07407407407408,0)" xlink:href="#aA"/></g><path fill="#fff" d="M50-238c28 0 22 38 0 38-10-2-19-7-19-19s7-18 19-19zM3 58c24 15 35-10 35-42v-169l-25-4v-8h54V7c4 51-28 81-77 66V38C3 36-1 51 3 58" id="aY"/><path fill="#fff" d="M13-82c-2-68 46-101 114-84 8-3 15-8 28-7V64l18 4v9h-70v-9l23-4c1-25-2-53 2-75-11 8-27 15-47 15-49-1-66-35-68-86zm113-70c-53-13-86 12-81 70-6 54 34 80 81 61v-131" id="aZ"/><g id="y"><use transform="matrix(0.06172839506172839,0,0,0.06172839506172839,0,0)" xlink:href="#aq"/><use transform="matrix(0.06172839506172839,0,0,0.06172839506172839,15.987654320987653,0)" xlink:href="#ar"/><use transform="matrix(0.06172839506172839,0,0,0.06172839506172839,27.098765432098766,0)" xlink:href="#as"/><use transform="matrix(0.06172839506172839,0,0,0.06172839506172839,38.20987654320987,0)" xlink:href="#aY"/><use transform="matrix(0.06172839506172839,0,0,0.06172839506172839,44.382716049382715,0)" xlink:href="#aT"/><use transform="matrix(0.06172839506172839,0,0,0.06172839506172839,55.49382716049382,0)" xlink:href="#az"/><use transform="matrix(0.06172839506172839,0,0,0.06172839506172839,61.666666666666664,0)" xlink:href="#ar"/><use transform="matrix(0.06172839506172839,0,0,0.06172839506172839,72.77777777777777,0)" xlink:href="#as"/><use transform="matrix(0.06172839506172839,0,0,0.06172839506172839,83.88888888888889,0)" xlink:href="#aw"/><use transform="matrix(0.06172839506172839,0,0,0.06172839506172839,91.23456790123457,0)" xlink:href="#av"/><use transform="matrix(0.06172839506172839,0,0,0.06172839506172839,101.04938271604938,0)" xlink:href="#aZ"/><use transform="matrix(0.06172839506172839,0,0,0.06172839506172839,112.1604938271605,0)" xlink:href="#at"/><use transform="matrix(0.06172839506172839,0,0,0.06172839506172839,123.27160493827161,0)" xlink:href="#av"/><use transform="matrix(0.06172839506172839,0,0,0.06172839506172839,133.08641975308643,0)" xlink:href="#au"/><use transform="matrix(0.06172839506172839,0,0,0.06172839506172839,141.7283950617284,0)" xlink:href="#aI"/></g><g id="z"><use transform="matrix(0.06172839506172839,0,0,0.06172839506172839,0,0)" xlink:href="#aq"/><use transform="matrix(0.06172839506172839,0,0,0.06172839506172839,15.987654320987653,0)" xlink:href="#ar"/><use transform="matrix(0.06172839506172839,0,0,0.06172839506172839,27.098765432098766,0)" xlink:href="#as"/><use transform="matrix(0.06172839506172839,0,0,0.06172839506172839,38.20987654320987,0)" xlink:href="#aK"/><use transform="matrix(0.06172839506172839,0,0,0.06172839506172839,55.49382716049382,0)" xlink:href="#av"/><use transform="matrix(0.06172839506172839,0,0,0.06172839506172839,65.30864197530863,0)" xlink:href="#au"/><use transform="matrix(0.06172839506172839,0,0,0.06172839506172839,73.9506172839506,0)" xlink:href="#au"/><use transform="matrix(0.06172839506172839,0,0,0.06172839506172839,82.59259259259258,0)" xlink:href="#aJ"/><use transform="matrix(0.06172839506172839,0,0,0.06172839506172839,92.40740740740739,0)" xlink:href="#aR"/><use transform="matrix(0.06172839506172839,0,0,0.06172839506172839,103.5185185185185,0)" xlink:href="#av"/></g><g id="A"><use transform="matrix(0.06172839506172839,0,0,0.06172839506172839,0,0)" xlink:href="#aI"/><use transform="matrix(0.06172839506172839,0,0,0.06172839506172839,6.172839506172839,0)" xlink:href="#az"/><use transform="matrix(0.06172839506172839,0,0,0.06172839506172839,12.345679012345679,0)" xlink:href="#aK"/><use transform="matrix(0.06172839506172839,0,0,0.06172839506172839,29.629629629629626,0)" xlink:href="#av"/><use transform="matrix(0.06172839506172839,0,0,0.06172839506172839,39.44444444444444,0)" xlink:href="#as"/><use transform="matrix(0.06172839506172839,0,0,0.06172839506172839,50.55555555555556,0)" xlink:href="#aJ"/><use transform="matrix(0.06172839506172839,0,0,0.06172839506172839,60.370370370370374,0)" xlink:href="#aA"/><use transform="matrix(0.06172839506172839,0,0,0.06172839506172839,71.48148148148148,0)" xlink:href="#aA"/><use transform="matrix(0.06172839506172839,0,0,0.06172839506172839,82.5925925925926,0)" xlink:href="#av"/><use transform="matrix(0.06172839506172839,0,0,0.06172839506172839,92.4074074074074,0)" xlink:href="#aA"/></g><path fill="#fff" d="M152 0h-7L59-203v189l32 5v9H10v-9l31-5v-208l-31-4v-10h72l76 180 84-180h68v10l-31 4v208l31 5v9h-96v-9l32-5v-189" id="ba"/><path fill="#fff" d="M10-9l31-5v-208l-31-4v-10h177v57h-11l-6-38c-28-4-63-3-95-3v92h63l6-28h11v73h-11l-6-29H75v96l105-3 10-43h12l-3 62H10v-9" id="bb"/><path fill="#fff" d="M178-68c0 79-95 82-154 59v-54h12c1 35 22 52 60 52 50 0 69-58 33-82-39-24-105-21-105-85 0-67 86-66 142-53v49h-12l-6-29c-31-27-121-7-89 42 28 43 119 24 119 101" id="bc"/><path fill="#fff" d="M56-15s89 2 122-6l10-45h12l-5 66H17v-17l132-204c-33 1-75-1-103 4l-6 37H28v-56h161v15" id="bd"/><g id="B"><use transform="matrix(0.06172839506172839,0,0,0.06172839506172839,0,0)" xlink:href="#aF"/><use transform="matrix(0.06172839506172839,0,0,0.06172839506172839,13.518518518518517,0)" xlink:href="#aC"/><use transform="matrix(0.06172839506172839,0,0,0.06172839506172839,20.864197530864196,0)" xlink:href="#ba"/><use transform="matrix(0.06172839506172839,0,0,0.06172839506172839,40.61728395061728,0)" xlink:href="#bb"/><use transform="matrix(0.06172839506172839,0,0,0.06172839506172839,54.1358024691358,0)" xlink:href="#bc"/><use transform="matrix(0.06172839506172839,0,0,0.06172839506172839,66.48148148148148,0)" xlink:href="#aF"/><use transform="matrix(0.06172839506172839,0,0,0.06172839506172839,78.20987654320987,0)" xlink:href="#aM"/><use transform="matrix(0.06172839506172839,0,0,0.06172839506172839,94.19753086419753,0)" xlink:href="#ba"/><use transform="matrix(0.06172839506172839,0,0,0.06172839506172839,113.95061728395062,0)" xlink:href="#ax"/><use transform="matrix(0.06172839506172839,0,0,0.06172839506172839,126.2962962962963,0)" xlink:href="#aF"/><use transform="matrix(0.06172839506172839,0,0,0.06172839506172839,139.8148148148148,0)" xlink:href="#bd"/></g><g id="C"><use transform="matrix(0.06172839506172839,0,0,0.06172839506172839,0,0)" xlink:href="#aK"/><use transform="matrix(0.06172839506172839,0,0,0.06172839506172839,17.28395061728395,0)" xlink:href="#au"/><use transform="matrix(0.06172839506172839,0,0,0.06172839506172839,25.925925925925924,0)" xlink:href="#aR"/></g><g id="D"><use transform="matrix(0.06172839506172839,0,0,0.06172839506172839,0,0)" xlink:href="#aq"/><use transform="matrix(0.06172839506172839,0,0,0.06172839506172839,15.987654320987653,0)" xlink:href="#ar"/><use transform="matrix(0.06172839506172839,0,0,0.06172839506172839,27.098765432098766,0)" xlink:href="#as"/><use transform="matrix(0.06172839506172839,0,0,0.06172839506172839,38.20987654320987,0)" xlink:href="#aK"/><use transform="matrix(0.06172839506172839,0,0,0.06172839506172839,55.49382716049382,0)" xlink:href="#aJ"/><use transform="matrix(0.06172839506172839,0,0,0.06172839506172839,65.30864197530863,0)" xlink:href="#aI"/><use transform="matrix(0.06172839506172839,0,0,0.06172839506172839,71.48148148148147,0)" xlink:href="#aS"/><use transform="matrix(0.06172839506172839,0,0,0.06172839506172839,81.29629629629628,0)" xlink:href="#aV"/><use transform="matrix(0.06172839506172839,0,0,0.06172839506172839,92.40740740740739,0)" xlink:href="#as"/><use transform="matrix(0.06172839506172839,0,0,0.06172839506172839,103.5185185185185,0)" xlink:href="#au"/><use transform="matrix(0.06172839506172839,0,0,0.06172839506172839,112.16049382716048,0)" xlink:href="#av"/><use transform="matrix(0.06172839506172839,0,0,0.06172839506172839,121.97530864197529,0)" xlink:href="#aI"/><use transform="matrix(0.06172839506172839,0,0,0.06172839506172839,128.14814814814812,0)" xlink:href="#aI"/><use transform="matrix(0.06172839506172839,0,0,0.06172839506172839,134.32098765432096,0)" xlink:href="#az"/><use transform="matrix(0.06172839506172839,0,0,0.06172839506172839,140.4938271604938,0)" xlink:href="#ar"/><use transform="matrix(0.06172839506172839,0,0,0.06172839506172839,151.6049382716049,0)" xlink:href="#aR"/></g><g id="E"><use transform="matrix(0.06172839506172839,0,0,0.06172839506172839,0,0)" xlink:href="#aH"/><use transform="matrix(0.06172839506172839,0,0,0.06172839506172839,7.345679012345679,0)" xlink:href="#aJ"/><use transform="matrix(0.06172839506172839,0,0,0.06172839506172839,17.160493827160494,0)" xlink:href="#aS"/><use transform="matrix(0.06172839506172839,0,0,0.06172839506172839,26.97530864197531,0)" xlink:href="#at"/><use transform="matrix(0.06172839506172839,0,0,0.06172839506172839,38.08641975308642,0)" xlink:href="#aQ"/><use transform="matrix(0.06172839506172839,0,0,0.06172839506172839,44.25925925925926,0)" xlink:href="#aI"/><use transform="matrix(0.06172839506172839,0,0,0.06172839506172839,50.4320987654321,0)" xlink:href="#aG"/><use transform="matrix(0.06172839506172839,0,0,0.06172839506172839,61.543209876543216,0)" xlink:href="#as"/><use transform="matrix(0.06172839506172839,0,0,0.06172839506172839,72.65432098765433,0)" xlink:href="#aU"/><use transform="matrix(0.06172839506172839,0,0,0.06172839506172839,83.76543209876544,0)" xlink:href="#aw"/><use transform="matrix(0.06172839506172839,0,0,0.06172839506172839,91.11111111111113,0)" xlink:href="#av"/><use transform="matrix(0.06172839506172839,0,0,0.06172839506172839,100.92592592592594,0)" xlink:href="#aH"/><use transform="matrix(0.06172839506172839,0,0,0.06172839506172839,108.27160493827162,0)" xlink:href="#av"/><use transform="matrix(0.06172839506172839,0,0,0.06172839506172839,118.08641975308643,0)" xlink:href="#aw"/><use transform="matrix(0.06172839506172839,0,0,0.06172839506172839,125.43209876543212,0)" xlink:href="#av"/><use transform="matrix(0.06172839506172839,0,0,0.06172839506172839,135.24691358024694,0)" xlink:href="#ar"/><use transform="matrix(0.06172839506172839,0,0,0.06172839506172839,146.35802469135805,0)" xlink:href="#aS"/><use transform="matrix(0.06172839506172839,0,0,0.06172839506172839,156.17283950617286,0)" xlink:href="#av"/></g><path fill="#fff" d="M53-14c58 12 82-15 82-73 0-52-35-77-82-58v131zM89 4C64 4 42-2 24-9v-229l-24-4v-8h53l-1 94c48-33 114-4 114 69 0 57-23 91-77 91" id="be"/><g id="F"><use transform="matrix(0.06172839506172839,0,0,0.06172839506172839,0,0)" xlink:href="#aV"/><use transform="matrix(0.06172839506172839,0,0,0.06172839506172839,11.11111111111111,0)" xlink:href="#aT"/><use transform="matrix(0.06172839506172839,0,0,0.06172839506172839,22.22222222222222,0)" xlink:href="#be"/><use transform="matrix(0.06172839506172839,0,0,0.06172839506172839,33.33333333333333,0)" xlink:href="#be"/><use transform="matrix(0.06172839506172839,0,0,0.06172839506172839,44.44444444444444,0)" xlink:href="#az"/><use transform="matrix(0.06172839506172839,0,0,0.06172839506172839,50.617283950617285,0)" xlink:href="#av"/><use transform="matrix(0.06172839506172839,0,0,0.06172839506172839,60.4320987654321,0)" xlink:href="#au"/></g><path fill="#fff" d="M56-14l29 5v9H8v-9l26-5 80-107-68-101-27-4v-10h97v10l-30 4 49 73 55-73-29-4v-10h77v10l-26 4-66 88 81 120 26 5v9h-97v-9l30-5-62-91" id="bf"/><path fill="#fff" d="M27 48v-298h80v8l-52 8V33l52 7v8H27" id="bg"/><path fill="#fff" d="M13 48v-8l52-7v-267l-52-8v-8h80V48H13" id="bh"/><g id="G"><use transform="matrix(0.06172839506172839,0,0,0.06172839506172839,0,0)" xlink:href="#aF"/><use transform="matrix(0.06172839506172839,0,0,0.06172839506172839,13.518518518518517,0)" xlink:href="#bb"/><use transform="matrix(0.06172839506172839,0,0,0.06172839506172839,27.037037037037035,0)" xlink:href="#bf"/><use transform="matrix(0.06172839506172839,0,0,0.06172839506172839,43.02469135802469,0)" xlink:href="#aF"/><use transform="matrix(0.06172839506172839,0,0,0.06172839506172839,56.54320987654321,0)" xlink:href="#bg"/><use transform="matrix(0.06172839506172839,0,0,0.06172839506172839,63.888888888888886,0)" xlink:href="#bh"/></g><g id="H"><use transform="matrix(0.06172839506172839,0,0,0.06172839506172839,0,0)" xlink:href="#aK"/><use transform="matrix(0.06172839506172839,0,0,0.06172839506172839,17.28395061728395,0)" xlink:href="#be"/><use transform="matrix(0.06172839506172839,0,0,0.06172839506172839,28.39506172839506,0)" xlink:href="#aI"/><use transform="matrix(0.06172839506172839,0,0,0.06172839506172839,34.5679012345679,0)" xlink:href="#az"/></g><g id="I"><use transform="matrix(0.06172839506172839,0,0,0.06172839506172839,0,0)" xlink:href="#aq"/><use transform="matrix(0.06172839506172839,0,0,0.06172839506172839,15.987654320987653,0)" xlink:href="#ar"/><use transform="matrix(0.06172839506172839,0,0,0.06172839506172839,27.098765432098766,0)" xlink:href="#as"/><use transform="matrix(0.06172839506172839,0,0,0.06172839506172839,38.20987654320987,0)" xlink:href="#aK"/><use transform="matrix(0.06172839506172839,0,0,0.06172839506172839,55.49382716049382,0)" xlink:href="#aJ"/><use transform="matrix(0.06172839506172839,0,0,0.06172839506172839,65.30864197530863,0)" xlink:href="#aI"/><use transform="matrix(0.06172839506172839,0,0,0.06172839506172839,71.48148148148147,0)" xlink:href="#aS"/><use transform="matrix(0.06172839506172839,0,0,0.06172839506172839,81.29629629629628,0)" xlink:href="#aV"/><use transform="matrix(0.06172839506172839,0,0,0.06172839506172839,92.40740740740739,0)" xlink:href="#as"/><use transform="matrix(0.06172839506172839,0,0,0.06172839506172839,103.5185185185185,0)" xlink:href="#aw"/><use transform="matrix(0.06172839506172839,0,0,0.06172839506172839,110.86419753086419,0)" xlink:href="#av"/><use transform="matrix(0.06172839506172839,0,0,0.06172839506172839,120.679012345679,0)" xlink:href="#aZ"/><use transform="matrix(0.06172839506172839,0,0,0.06172839506172839,131.7901234567901,0)" xlink:href="#at"/><use transform="matrix(0.06172839506172839,0,0,0.06172839506172839,142.9012345679012,0)" xlink:href="#av"/><use transform="matrix(0.06172839506172839,0,0,0.06172839506172839,152.71604938271602,0)" xlink:href="#au"/><use transform="matrix(0.06172839506172839,0,0,0.06172839506172839,161.358024691358,0)" xlink:href="#aI"/></g><g id="J"><use transform="matrix(0.06172839506172839,0,0,0.06172839506172839,0,0)" xlink:href="#aF"/><use transform="matrix(0.06172839506172839,0,0,0.06172839506172839,13.518518518518517,0)" xlink:href="#aC"/><use transform="matrix(0.06172839506172839,0,0,0.06172839506172839,20.864197530864196,0)" xlink:href="#ba"/><use transform="matrix(0.06172839506172839,0,0,0.06172839506172839,40.61728395061728,0)" xlink:href="#bb"/><use transform="matrix(0.06172839506172839,0,0,0.06172839506172839,54.1358024691358,0)" xlink:href="#bc"/><use transform="matrix(0.06172839506172839,0,0,0.06172839506172839,66.48148148148148,0)" xlink:href="#aF"/><use transform="matrix(0.06172839506172839,0,0,0.06172839506172839,78.20987654320987,0)" xlink:href="#aM"/><use transform="matrix(0.06172839506172839,0,0,0.06172839506172839,94.19753086419753,0)" xlink:href="#ba"/><use transform="matrix(0.06172839506172839,0,0,0.06172839506172839,113.95061728395062,0)" xlink:href="#ax"/></g><path fill="#fff" d="M206 0h-36l-40-164L89 0H53L-1-190h32L70-26l43-164h34l41 164 42-164h31" id="bi"/><path fill="#fff" d="M117-194c89-4 53 116 60 194h-32v-121c0-31-8-49-39-48C34-167 62-67 57 0H25l-1-190h30c1 10-1 24 2 32 11-22 29-35 61-36" id="bj"/><path fill="#fff" d="M-5 72V49h209v23H-5" id="bk"/><path fill="#fff" d="M115-194c55 1 70 41 70 98S169 2 115 4C84 4 66-9 55-30l1 105H24l-1-265h31l2 30c10-21 28-34 59-34zm-8 174c40 0 45-34 45-75s-6-73-45-74c-42 0-51 32-51 76 0 43 10 73 51 73" id="bl"/><path fill="#fff" d="M114-163C36-179 61-72 57 0H25l-1-190h30c1 12-1 29 2 39 6-27 23-49 58-41v29" id="bm"/><path fill="#fff" d="M100-194c62-1 85 37 85 99 1 63-27 99-86 99S16-35 15-95c0-66 28-99 85-99zM99-20c44 1 53-31 53-75 0-43-8-75-51-75s-53 32-53 75 10 74 51 75" id="bn"/><path fill="#fff" d="M108 0H70L1-190h34L89-25l56-165h34" id="bo"/><path fill="#fff" d="M24-231v-30h32v30H24zM24 0v-190h32V0H24" id="bp"/><path fill="#fff" d="M85-194c31 0 48 13 60 33l-1-100h32l1 261h-30c-2-10 0-23-3-31C134-8 116 4 85 4 32 4 16-35 15-94c0-66 23-100 70-100zm9 24c-40 0-46 34-46 75 0 40 6 74 45 74 42 0 51-32 51-76 0-42-9-74-50-73" id="bq"/><path fill="#fff" d="M100-194c63 0 86 42 84 106H49c0 40 14 67 53 68 26 1 43-12 49-29l28 8c-11 28-37 45-77 45C44 4 14-33 15-96c1-61 26-98 85-98zm52 81c6-60-76-77-97-28-3 7-6 17-6 28h103" id="br"/><path fill="#fff" d="M135-143c-3-34-86-38-87 0 15 53 115 12 119 90S17 21 10-45l28-5c4 36 97 45 98 0-10-56-113-15-118-90-4-57 82-63 122-42 12 7 21 19 24 35" id="bs"/><path fill="#fff" d="M59-47c-2 24 18 29 38 22v24C64 9 27 4 27-40v-127H5v-23h24l9-43h21v43h35v23H59v120" id="bt"/><path fill="#fff" d="M177-190C167-65 218 103 67 71c-23-6-38-20-44-43l32-5c15 47 100 32 89-28v-30C133-14 115 1 83 1 29 1 15-40 15-95c0-56 16-97 71-98 29-1 48 16 59 35 1-10 0-23 2-32h30zM94-22c36 0 50-32 50-73 0-42-14-75-50-75-39 0-46 34-46 75s6 73 46 73" id="bu"/><g id="K"><use transform="matrix(0.05,0,0,0.05,0,0)" xlink:href="#bi"/><use transform="matrix(0.05,0,0,0.05,12.950000000000001,0)" xlink:href="#bj"/><use transform="matrix(0.05,0,0,0.05,22.950000000000003,0)" xlink:href="#bk"/><use transform="matrix(0.05,0,0,0.05,32.95,0)" xlink:href="#bl"/><use transform="matrix(0.05,0,0,0.05,42.95,0)" xlink:href="#bm"/><use transform="matrix(0.05,0,0,0.05,48.900000000000006,0)" xlink:href="#bn"/><use transform="matrix(0.05,0,0,0.05,58.900000000000006,0)" xlink:href="#bo"/><use transform="matrix(0.05,0,0,0.05,67.9,0)" xlink:href="#bp"/><use transform="matrix(0.05,0,0,0.05,71.85000000000001,0)" xlink:href="#bq"/><use transform="matrix(0.05,0,0,0.05,81.85000000000001,0)" xlink:href="#br"/><use transform="matrix(0.05,0,0,0.05,91.85000000000001,0)" xlink:href="#bm"/><use transform="matrix(0.05,0,0,0.05,97.80000000000001,0)" xlink:href="#bk"/><use transform="matrix(0.05,0,0,0.05,107.80000000000001,0)" xlink:href="#bs"/><use transform="matrix(0.05,0,0,0.05,116.80000000000001,0)" xlink:href="#br"/><use transform="matrix(0.05,0,0,0.05,126.80000000000001,0)" xlink:href="#bt"/><use transform="matrix(0.05,0,0,0.05,131.8,0)" xlink:href="#bt"/><use transform="matrix(0.05,0,0,0.05,136.8,0)" xlink:href="#bp"/><use transform="matrix(0.05,0,0,0.05,140.75,0)" xlink:href="#bj"/><use transform="matrix(0.05,0,0,0.05,150.75,0)" xlink:href="#bu"/></g><path fill="#fff" d="M63-220v92h138v28H63V0H30v-248h175v28H63" id="bv"/><path fill="#fff" d="M194 0L95-120 63-95V0H30v-248h33v124l119-124h40L117-140 236 0h-42" id="bw"/><g id="L"><use transform="matrix(0.05,0,0,0.05,0,0)" xlink:href="#bv"/><use transform="matrix(0.05,0,0,0.05,10.950000000000001,0)" xlink:href="#bw"/></g><path fill="#fff" d="M84 4C-5 8 30-112 23-190h32v120c0 31 7 50 39 49 72-2 45-101 50-169h31l1 190h-30c-1-10 1-25-2-33-11 22-28 36-60 37" id="bx"/><g id="M"><use transform="matrix(0.05,0,0,0.05,0,0)" xlink:href="#bx"/><use transform="matrix(0.05,0,0,0.05,10,0)" xlink:href="#bs"/><use transform="matrix(0.05,0,0,0.05,19,0)" xlink:href="#br"/><use transform="matrix(0.05,0,0,0.05,29,0)" xlink:href="#bm"/><use transform="matrix(0.05,0,0,0.05,34.95,0)" xlink:href="#bk"/><use transform="matrix(0.05,0,0,0.05,44.95,0)" xlink:href="#bp"/><use transform="matrix(0.05,0,0,0.05,48.900000000000006,0)" xlink:href="#bq"/></g><path fill="#fff" d="M160-131c35 5 61 23 61 61C221 17 115-2 30 0v-248c76 3 177-17 177 60 0 33-19 50-47 57zm-97-11c50-1 110 9 110-42 0-47-63-36-110-37v79zm0 115c55-2 124 14 124-45 0-56-70-42-124-44v89" id="by"/><path fill="#fff" d="M33 0v-248h34V0H33" id="bz"/><path fill="#fff" d="M143 4C61 4 22-44 18-125c-5-107 100-154 193-111 17 8 29 25 37 43l-32 9c-13-25-37-40-76-40-61 0-88 39-88 99 0 61 29 100 91 101 35 0 62-11 79-27v-45h-74v-28h105v86C228-13 192 4 143 4" id="bA"/><path fill="#fff" d="M190 0L58-211 59 0H30v-248h39L202-35l-2-213h31V0h-41" id="bB"/><path fill="#fff" d="M127-220V0H93v-220H8v-28h204v28h-85" id="bC"/><g id="N"><use transform="matrix(0.05,0,0,0.05,0,0)" xlink:href="#by"/><use transform="matrix(0.05,0,0,0.05,12,0)" xlink:href="#bz"/><use transform="matrix(0.05,0,0,0.05,17,0)" xlink:href="#bA"/><use transform="matrix(0.05,0,0,0.05,31,0)" xlink:href="#bz"/><use transform="matrix(0.05,0,0,0.05,36,0)" xlink:href="#bB"/><use transform="matrix(0.05,0,0,0.05,48.95,0)" xlink:href="#bC"/></g><path fill="#fff" d="M179-190L93 31C79 59 56 82 12 73V49c39 6 53-20 64-50L1-190h34L92-34l54-156h33" id="bD"/><g id="O"><use transform="matrix(0.05,0,0,0.05,0,0)" xlink:href="#bw"/><use transform="matrix(0.05,0,0,0.05,12,0)" xlink:href="#br"/><use transform="matrix(0.05,0,0,0.05,22,0)" xlink:href="#bD"/></g><g id="P"><use transform="matrix(0.05,0,0,0.05,0,0)" xlink:href="#bp"/><use transform="matrix(0.05,0,0,0.05,3.95,0)" xlink:href="#bj"/><use transform="matrix(0.05,0,0,0.05,13.949999999999998,0)" xlink:href="#bt"/><use transform="matrix(0.05,0,0,0.05,18.95,0)" xlink:href="#bm"/><use transform="matrix(0.05,0,0,0.05,24.9,0)" xlink:href="#bn"/></g><path fill="#fff" d="M30 0v-248h187v28H63v79h144v27H63v87h162V0H30" id="bE"/><path fill="#fff" d="M195 0l-74-108L45 0H8l94-129-87-119h37l69 98 67-98h37l-84 118L233 0h-38" id="bF"/><g id="Q"><use transform="matrix(0.05,0,0,0.05,0,0)" xlink:href="#bC"/><use transform="matrix(0.05,0,0,0.05,10.950000000000001,0)" xlink:href="#bE"/><use transform="matrix(0.05,0,0,0.05,22.950000000000003,0)" xlink:href="#bF"/><use transform="matrix(0.05,0,0,0.05,34.95,0)" xlink:href="#bC"/></g><path fill="#fff" d="M96-169c-40 0-48 33-48 73s9 75 48 75c24 0 41-14 43-38l32 2c-6 37-31 61-74 61-59 0-76-41-82-99-10-93 101-131 147-64 4 7 5 14 7 22l-32 3c-4-21-16-35-41-35" id="bG"/><g id="R"><use transform="matrix(0.05,0,0,0.05,0,0)" xlink:href="#bt"/><use transform="matrix(0.05,0,0,0.05,5,0)" xlink:href="#bn"/><use transform="matrix(0.05,0,0,0.05,15,0)" xlink:href="#bl"/><use transform="matrix(0.05,0,0,0.05,25,0)" xlink:href="#bp"/><use transform="matrix(0.05,0,0,0.05,28.950000000000003,0)" xlink:href="#bG"/><use transform="matrix(0.05,0,0,0.05,37.95,0)" xlink:href="#bs"/></g><path fill="#fff" d="M26 75v-336h71v23H56V52h41v23H26" id="bH"/><path fill="#fff" d="M3 75V52h41v-290H3v-23h71V75H3" id="bI"/><g id="S"><use transform="matrix(0.05,0,0,0.05,0,0)" xlink:href="#bC"/><use transform="matrix(0.05,0,0,0.05,10.950000000000001,0)" xlink:href="#bE"/><use transform="matrix(0.05,0,0,0.05,22.950000000000003,0)" xlink:href="#bF"/><use transform="matrix(0.05,0,0,0.05,34.95,0)" xlink:href="#bC"/><use transform="matrix(0.05,0,0,0.05,45.900000000000006,0)" xlink:href="#bH"/><use transform="matrix(0.05,0,0,0.05,50.900000000000006,0)" xlink:href="#bI"/></g><path fill="#fff" d="M24 0v-261h32V0H24" id="bJ"/><path fill="#fff" d="M145-31C134-9 116 4 85 4 32 4 16-35 15-94c0-59 17-99 70-100 32-1 48 14 60 33 0-11-1-24 2-32h30l-1 268h-32zM93-21c41 0 51-33 51-76s-8-73-50-73c-40 0-46 35-46 75s5 74 45 74" id="bK"/><g id="T"><use transform="matrix(0.05,0,0,0.05,0,0)" xlink:href="#bi"/><use transform="matrix(0.05,0,0,0.05,12.950000000000001,0)" xlink:href="#bj"/><use transform="matrix(0.05,0,0,0.05,22.950000000000003,0)" xlink:href="#bk"/><use transform="matrix(0.05,0,0,0.05,32.95,0)" xlink:href="#bG"/><use transform="matrix(0.05,0,0,0.05,41.95,0)" xlink:href="#bn"/><use transform="matrix(0.05,0,0,0.05,51.95,0)" xlink:href="#bx"/><use transform="matrix(0.05,0,0,0.05,61.95,0)" xlink:href="#bj"/><use transform="matrix(0.05,0,0,0.05,71.95,0)" xlink:href="#bs"/><use transform="matrix(0.05,0,0,0.05,80.95,0)" xlink:href="#br"/><use transform="matrix(0.05,0,0,0.05,90.95,0)" xlink:href="#bJ"/><use transform="matrix(0.05,0,0,0.05,94.9,0)" xlink:href="#bk"/><use transform="matrix(0.05,0,0,0.05,104.9,0)" xlink:href="#bm"/><use transform="matrix(0.05,0,0,0.05,110.85000000000001,0)" xlink:href="#br"/><use transform="matrix(0.05,0,0,0.05,120.85000000000001,0)" xlink:href="#bK"/><use transform="matrix(0.05,0,0,0.05,130.85000000000002,0)" xlink:href="#bx"/><use transform="matrix(0.05,0,0,0.05,140.85000000000002,0)" xlink:href="#br"/><use transform="matrix(0.05,0,0,0.05,150.85000000000002,0)" xlink:href="#bs"/><use transform="matrix(0.05,0,0,0.05,159.85000000000002,0)" xlink:href="#bt"/></g><path fill="#fff" d="M143 0L79-87 56-68V0H24v-261h32v163l83-92h37l-77 82L181 0h-38" id="bL"/><path fill="#fff" d="M141-36C126-15 110 5 73 4 37 3 15-17 15-53c-1-64 63-63 125-63 3-35-9-54-41-54-24 1-41 7-42 31l-33-3c5-37 33-52 76-52 45 0 72 20 72 64v82c-1 20 7 32 28 27v20c-31 9-61-2-59-35zM48-53c0 20 12 33 32 33 41-3 63-29 60-74-43 2-92-5-92 41" id="bM"/><path fill="#fff" d="M210-169c-67 3-38 105-44 169h-31v-121c0-29-5-50-35-48C34-165 62-65 56 0H25l-1-190h30c1 10-1 24 2 32 10-44 99-50 107 0 11-21 27-35 58-36 85-2 47 119 55 194h-31v-121c0-29-5-49-35-48" id="bN"/><g id="U"><use transform="matrix(0.05,0,0,0.05,0,0)" xlink:href="#bj"/><use transform="matrix(0.05,0,0,0.05,10,0)" xlink:href="#bp"/><use transform="matrix(0.05,0,0,0.05,13.949999999999998,0)" xlink:href="#bG"/><use transform="matrix(0.05,0,0,0.05,22.95,0)" xlink:href="#bL"/><use transform="matrix(0.05,0,0,0.05,31.950000000000003,0)" xlink:href="#bj"/><use transform="matrix(0.05,0,0,0.05,41.95,0)" xlink:href="#bM"/><use transform="matrix(0.05,0,0,0.05,51.95,0)" xlink:href="#bN"/><use transform="matrix(0.05,0,0,0.05,66.9,0)" xlink:href="#br"/></g><g id="V"><use transform="matrix(0.05,0,0,0.05,0,0)" xlink:href="#bq"/><use transform="matrix(0.05,0,0,0.05,10,0)" xlink:href="#br"/><use transform="matrix(0.05,0,0,0.05,20,0)" xlink:href="#bt"/><use transform="matrix(0.05,0,0,0.05,25,0)" xlink:href="#bM"/><use transform="matrix(0.05,0,0,0.05,35,0)" xlink:href="#bp"/><use transform="matrix(0.05,0,0,0.05,38.95,0)" xlink:href="#bJ"/><use transform="matrix(0.05,0,0,0.05,42.900000000000006,0)" xlink:href="#bs"/></g><g id="W"><use transform="matrix(0.05,0,0,0.05,0,0)" xlink:href="#bJ"/><use transform="matrix(0.05,0,0,0.05,3.95,0)" xlink:href="#bM"/><use transform="matrix(0.05,0,0,0.05,13.949999999999998,0)" xlink:href="#bs"/><use transform="matrix(0.05,0,0,0.05,22.95,0)" xlink:href="#bt"/><use transform="matrix(0.05,0,0,0.05,27.950000000000003,0)" xlink:href="#bk"/><use transform="matrix(0.05,0,0,0.05,37.95,0)" xlink:href="#bx"/><use transform="matrix(0.05,0,0,0.05,47.95,0)" xlink:href="#bl"/><use transform="matrix(0.05,0,0,0.05,57.95,0)" xlink:href="#bq"/><use transform="matrix(0.05,0,0,0.05,67.95,0)" xlink:href="#bM"/><use transform="matrix(0.05,0,0,0.05,77.95,0)" xlink:href="#bt"/><use transform="matrix(0.05,0,0,0.05,82.95,0)" xlink:href="#br"/><use transform="matrix(0.05,0,0,0.05,92.95,0)" xlink:href="#bq"/></g><path fill="#fff" d="M240 0l2-218c-23 76-54 145-80 218h-23L58-218 59 0H30v-248h44l77 211c21-75 51-140 76-211h43V0h-30" id="bO"/><path fill="#fff" d="M185-189c-5-48-123-54-124 2 14 75 158 14 163 119 3 78-121 87-175 55-17-10-28-26-33-46l33-7c5 56 141 63 141-1 0-78-155-14-162-118-5-82 145-84 179-34 5 7 8 16 11 25" id="bP"/><path fill="#fff" d="M205 0l-28-72H64L36 0H1l101-248h38L239 0h-34zm-38-99l-47-123c-12 45-31 82-46 123h93" id="bQ"/><path fill="#fff" d="M30-248c87 1 191-15 191 75 0 78-77 80-158 76V0H30v-248zm33 125c57 0 124 11 124-50 0-59-68-47-124-48v98" id="bR"/><path fill="#fff" d="M209 0H11v-25l151-195H24v-28h176v25L50-27h159V0" id="bS"/><g id="X"><use transform="matrix(0.05,0,0,0.05,0,0)" xlink:href="#bC"/><use transform="matrix(0.05,0,0,0.05,10.950000000000001,0)" xlink:href="#bz"/><use transform="matrix(0.05,0,0,0.05,15.950000000000001,0)" xlink:href="#bO"/><use transform="matrix(0.05,0,0,0.05,30.900000000000002,0)" xlink:href="#bE"/><use transform="matrix(0.05,0,0,0.05,42.900000000000006,0)" xlink:href="#bP"/><use transform="matrix(0.05,0,0,0.05,54.900000000000006,0)" xlink:href="#bC"/><use transform="matrix(0.05,0,0,0.05,64.5,0)" xlink:href="#bQ"/><use transform="matrix(0.05,0,0,0.05,76.5,0)" xlink:href="#bO"/><use transform="matrix(0.05,0,0,0.05,91.45,0)" xlink:href="#bR"/><use transform="matrix(0.05,0,0,0.05,103.45,0)" xlink:href="#bC"/><use transform="matrix(0.05,0,0,0.05,114.4,0)" xlink:href="#bS"/></g><g id="Y"><use transform="matrix(0.05,0,0,0.05,0,0)" xlink:href="#bi"/><use transform="matrix(0.05,0,0,0.05,12.950000000000001,0)" xlink:href="#bj"/><use transform="matrix(0.05,0,0,0.05,22.950000000000003,0)" xlink:href="#bk"/><use transform="matrix(0.05,0,0,0.05,32.95,0)" xlink:href="#br"/><use transform="matrix(0.05,0,0,0.05,42.95,0)" xlink:href="#bo"/><use transform="matrix(0.05,0,0,0.05,51.95,0)" xlink:href="#br"/><use transform="matrix(0.05,0,0,0.05,61.95,0)" xlink:href="#bj"/><use transform="matrix(0.05,0,0,0.05,71.95,0)" xlink:href="#bt"/></g><g id="Z"><use transform="matrix(0.05,0,0,0.05,0,0)" xlink:href="#bR"/><use transform="matrix(0.05,0,0,0.05,12,0)" xlink:href="#bw"/></g><g id="aa"><use transform="matrix(0.05,0,0,0.05,0,0)" xlink:href="#bp"/><use transform="matrix(0.05,0,0,0.05,3.95,0)" xlink:href="#bq"/></g><g id="ab"><use transform="matrix(0.05,0,0,0.05,0,0)" xlink:href="#bn"/><use transform="matrix(0.05,0,0,0.05,10,0)" xlink:href="#bi"/><use transform="matrix(0.05,0,0,0.05,22.950000000000003,0)" xlink:href="#bj"/><use transform="matrix(0.05,0,0,0.05,32.95,0)" xlink:href="#br"/><use transform="matrix(0.05,0,0,0.05,42.95,0)" xlink:href="#bm"/><use transform="matrix(0.05,0,0,0.05,48.900000000000006,0)" xlink:href="#bk"/><use transform="matrix(0.05,0,0,0.05,58.900000000000006,0)" xlink:href="#bp"/><use transform="matrix(0.05,0,0,0.05,62.85,0)" xlink:href="#bq"/></g><g id="ac"><use transform="matrix(0.05,0,0,0.05,0,0)" xlink:href="#br"/><use transform="matrix(0.05,0,0,0.05,10,0)" xlink:href="#bo"/><use transform="matrix(0.05,0,0,0.05,19,0)" xlink:href="#br"/><use transform="matrix(0.05,0,0,0.05,29,0)" xlink:href="#bj"/><use transform="matrix(0.05,0,0,0.05,39,0)" xlink:href="#bt"/><use transform="matrix(0.05,0,0,0.05,44,0)" xlink:href="#bk"/><use transform="matrix(0.05,0,0,0.05,54,0)" xlink:href="#bj"/><use transform="matrix(0.05,0,0,0.05,64,0)" xlink:href="#bM"/><use transform="matrix(0.05,0,0,0.05,74,0)" xlink:href="#bN"/><use transform="matrix(0.05,0,0,0.05,88.95,0)" xlink:href="#br"/></g><g id="ad"><use transform="matrix(0.05,0,0,0.05,0,0)" xlink:href="#br"/><use transform="matrix(0.05,0,0,0.05,10,0)" xlink:href="#bo"/><use transform="matrix(0.05,0,0,0.05,19,0)" xlink:href="#br"/><use transform="matrix(0.05,0,0,0.05,29,0)" xlink:href="#bj"/><use transform="matrix(0.05,0,0,0.05,39,0)" xlink:href="#bt"/><use transform="matrix(0.05,0,0,0.05,44,0)" xlink:href="#bk"/><use transform="matrix(0.05,0,0,0.05,54,0)" xlink:href="#bq"/><use transform="matrix(0.05,0,0,0.05,64,0)" xlink:href="#br"/><use transform="matrix(0.05,0,0,0.05,74,0)" xlink:href="#bs"/><use transform="matrix(0.05,0,0,0.05,83,0)" xlink:href="#bG"/><use transform="matrix(0.05,0,0,0.05,92,0)" xlink:href="#bm"/><use transform="matrix(0.05,0,0,0.05,97.95,0)" xlink:href="#bp"/><use transform="matrix(0.05,0,0,0.05,101.9,0)" xlink:href="#bl"/><use transform="matrix(0.05,0,0,0.05,111.9,0)" xlink:href="#bt"/><use transform="matrix(0.05,0,0,0.05,116.9,0)" xlink:href="#bp"/><use transform="matrix(0.05,0,0,0.05,120.85000000000001,0)" xlink:href="#bn"/><use transform="matrix(0.05,0,0,0.05,130.85000000000002,0)" xlink:href="#bj"/></g><g id="ae"><use transform="matrix(0.05,0,0,0.05,0,0)" xlink:href="#bs"/><use transform="matrix(0.05,0,0,0.05,9,0)" xlink:href="#bt"/><use transform="matrix(0.05,0,0,0.05,14,0)" xlink:href="#bM"/><use transform="matrix(0.05,0,0,0.05,24,0)" xlink:href="#bm"/><use transform="matrix(0.05,0,0,0.05,29.950000000000003,0)" xlink:href="#bt"/><use transform="matrix(0.05,0,0,0.05,34.95,0)" xlink:href="#bk"/><use transform="matrix(0.05,0,0,0.05,44.95,0)" xlink:href="#bt"/><use transform="matrix(0.05,0,0,0.05,49.95,0)" xlink:href="#bp"/><use transform="matrix(0.05,0,0,0.05,53.900000000000006,0)" xlink:href="#bN"/><use transform="matrix(0.05,0,0,0.05,68.85000000000001,0)" xlink:href="#br"/></g><g id="af"><use transform="matrix(0.05,0,0,0.05,0,0)" xlink:href="#br"/><use transform="matrix(0.05,0,0,0.05,10,0)" xlink:href="#bj"/><use transform="matrix(0.05,0,0,0.05,20,0)" xlink:href="#bq"/><use transform="matrix(0.05,0,0,0.05,30,0)" xlink:href="#bk"/><use transform="matrix(0.05,0,0,0.05,40,0)" xlink:href="#bt"/><use transform="matrix(0.05,0,0,0.05,45,0)" xlink:href="#bp"/><use transform="matrix(0.05,0,0,0.05,48.95,0)" xlink:href="#bN"/><use transform="matrix(0.05,0,0,0.05,63.900000000000006,0)" xlink:href="#br"/></g><g id="ag"><use transform="matrix(0.05,0,0,0.05,0,0)" xlink:href="#bM"/><use transform="matrix(0.05,0,0,0.05,10,0)" xlink:href="#bG"/><use transform="matrix(0.05,0,0,0.05,19,0)" xlink:href="#bG"/><use transform="matrix(0.05,0,0,0.05,28,0)" xlink:href="#br"/><use transform="matrix(0.05,0,0,0.05,38,0)" xlink:href="#bs"/><use transform="matrix(0.05,0,0,0.05,47,0)" xlink:href="#bs"/></g><path fill="#fff" d="M137 0h-34L2-248h35l83 218 83-218h36" id="bT"/><path fill="#fff" d="M233-177c-1 41-23 64-60 70L243 0h-38l-65-103H63V0H30v-248c88 3 205-21 203 71zM63-129c60-2 137 13 137-47 0-61-80-42-137-45v92" id="bU"/><path fill="#fff" d="M212-179c-10-28-35-45-73-45-59 0-87 40-87 99 0 60 29 101 89 101 43 0 62-24 78-52l27 14C228-24 195 4 139 4 59 4 22-46 18-125c-6-104 99-153 187-111 19 9 31 26 39 46" id="bV"/><path fill="#fff" d="M197 0v-115H63V0H30v-248h33v105h134v-105h34V0h-34" id="bW"/><g id="ah"><use transform="matrix(0.05,0,0,0.05,0,0)" xlink:href="#bT"/><use transform="matrix(0.05,0,0,0.05,10.65,0)" xlink:href="#bQ"/><use transform="matrix(0.05,0,0,0.05,22.65,0)" xlink:href="#bU"/><use transform="matrix(0.05,0,0,0.05,35.6,0)" xlink:href="#bV"/><use transform="matrix(0.05,0,0,0.05,48.550000000000004,0)" xlink:href="#bW"/><use transform="matrix(0.05,0,0,0.05,61.5,0)" xlink:href="#bQ"/><use transform="matrix(0.05,0,0,0.05,73.5,0)" xlink:href="#bU"/></g><g id="ai"><use transform="matrix(0.05,0,0,0.05,0,0)" xlink:href="#bG"/><use transform="matrix(0.05,0,0,0.05,9,0)" xlink:href="#bM"/><use transform="matrix(0.05,0,0,0.05,19,0)" xlink:href="#bt"/><use transform="matrix(0.05,0,0,0.05,24,0)" xlink:href="#br"/><use transform="matrix(0.05,0,0,0.05,34,0)" xlink:href="#bu"/><use transform="matrix(0.05,0,0,0.05,44,0)" xlink:href="#bn"/><use transform="matrix(0.05,0,0,0.05,54,0)" xlink:href="#bm"/><use transform="matrix(0.05,0,0,0.05,59.95,0)" xlink:href="#bD"/></g><path fill="#fff" d="M164-154L98 4H85L17-153c-7-3-20 0-17-12h77v8l-26 4L99-38l46-115-26-4v-8h61v8" id="bX"/><g id="aj"><use transform="matrix(0.06172839506172839,0,0,0.06172839506172839,0,0)" xlink:href="#aq"/><use transform="matrix(0.06172839506172839,0,0,0.06172839506172839,15.987654320987653,0)" xlink:href="#ar"/><use transform="matrix(0.06172839506172839,0,0,0.06172839506172839,27.098765432098766,0)" xlink:href="#as"/><use transform="matrix(0.06172839506172839,0,0,0.06172839506172839,38.20987654320987,0)" xlink:href="#at"/><use transform="matrix(0.06172839506172839,0,0,0.06172839506172839,49.32098765432099,0)" xlink:href="#au"/><use transform="matrix(0.06172839506172839,0,0,0.06172839506172839,57.96296296296296,0)" xlink:href="#av"/><use transform="matrix(0.06172839506172839,0,0,0.06172839506172839,67.77777777777777,0)" xlink:href="#aw"/><use transform="matrix(0.06172839506172839,0,0,0.06172839506172839,75.12345679012346,0)" xlink:href="#as"/><use transform="matrix(0.06172839506172839,0,0,0.06172839506172839,86.23456790123457,0)" xlink:href="#av"/><use transform="matrix(0.06172839506172839,0,0,0.06172839506172839,96.04938271604938,0)" xlink:href="#bX"/><use transform="matrix(0.06172839506172839,0,0,0.06172839506172839,107.1604938271605,0)" xlink:href="#av"/><use transform="matrix(0.06172839506172839,0,0,0.06172839506172839,116.9753086419753,0)" xlink:href="#ar"/><use transform="matrix(0.06172839506172839,0,0,0.06172839506172839,128.0864197530864,0)" xlink:href="#aI"/></g><g id="ak"><use transform="matrix(0.06172839506172839,0,0,0.06172839506172839,0,0)" xlink:href="#av"/><use transform="matrix(0.06172839506172839,0,0,0.06172839506172839,9.814814814814815,0)" xlink:href="#bX"/><use transform="matrix(0.06172839506172839,0,0,0.06172839506172839,20.925925925925924,0)" xlink:href="#av"/><use transform="matrix(0.06172839506172839,0,0,0.06172839506172839,30.74074074074074,0)" xlink:href="#ar"/><use transform="matrix(0.06172839506172839,0,0,0.06172839506172839,41.85185185185185,0)" xlink:href="#aI"/><use transform="matrix(0.06172839506172839,0,0,0.06172839506172839,48.02469135802469,0)" xlink:href="#as"/><use transform="matrix(0.06172839506172839,0,0,0.06172839506172839,59.1358024691358,0)" xlink:href="#az"/><use transform="matrix(0.06172839506172839,0,0,0.06172839506172839,65.30864197530863,0)" xlink:href="#aA"/></g><path fill="#fff" d="M115-194c53 0 69 39 70 98 0 66-23 100-70 100C84 3 66-7 56-30L54 0H23l1-261h32v101c10-23 28-34 59-34zm-8 174c40 0 45-34 45-75 0-40-5-75-45-74-42 0-51 32-51 76 0 43 10 73 51 73" id="bY"/><g id="al"><use transform="matrix(0.05,0,0,0.05,0,0)" xlink:href="#bi"/><use transform="matrix(0.05,0,0,0.05,12.950000000000001,0)" xlink:href="#bj"/><use transform="matrix(0.05,0,0,0.05,22.950000000000003,0)" xlink:href="#bk"/><use transform="matrix(0.05,0,0,0.05,32.95,0)" xlink:href="#bY"/><use transform="matrix(0.05,0,0,0.05,42.95,0)" xlink:href="#bn"/><use transform="matrix(0.05,0,0,0.05,52.95,0)" xlink:href="#bn"/><use transform="matrix(0.05,0,0,0.05,62.95,0)" xlink:href="#bL"/><use transform="matrix(0.05,0,0,0.05,71.95,0)" xlink:href="#bp"/><use transform="matrix(0.05,0,0,0.05,75.9,0)" xlink:href="#bj"/><use transform="matrix(0.05,0,0,0.05,85.9,0)" xlink:href="#bu"/></g><g id="am"><use transform="matrix(0.05,0,0,0.05,0,0)" xlink:href="#bm"/><use transform="matrix(0.05,0,0,0.05,5.95,0)" xlink:href="#br"/><use transform="matrix(0.05,0,0,0.05,15.949999999999998,0)" xlink:href="#bG"/><use transform="matrix(0.05,0,0,0.05,24.95,0)" xlink:href="#bp"/><use transform="matrix(0.05,0,0,0.05,28.899999999999995,0)" xlink:href="#bl"/><use transform="matrix(0.05,0,0,0.05,38.9,0)" xlink:href="#bp"/><use transform="matrix(0.05,0,0,0.05,42.85,0)" xlink:href="#br"/><use transform="matrix(0.05,0,0,0.05,52.85,0)" xlink:href="#bj"/><use transform="matrix(0.05,0,0,0.05,62.85,0)" xlink:href="#bt"/><use transform="matrix(0.05,0,0,0.05,67.85,0)" xlink:href="#bk"/><use transform="matrix(0.05,0,0,0.05,77.85,0)" xlink:href="#bp"/><use transform="matrix(0.05,0,0,0.05,81.8,0)" xlink:href="#bq"/></g><g id="an"><use transform="matrix(0.05,0,0,0.05,0,0)" xlink:href="#bl"/><use transform="matrix(0.05,0,0,0.05,10,0)" xlink:href="#bm"/><use transform="matrix(0.05,0,0,0.05,15.949999999999998,0)" xlink:href="#bn"/><use transform="matrix(0.05,0,0,0.05,25.950000000000003,0)" xlink:href="#bo"/><use transform="matrix(0.05,0,0,0.05,34.95,0)" xlink:href="#bp"/><use transform="matrix(0.05,0,0,0.05,38.900000000000006,0)" xlink:href="#bq"/><use transform="matrix(0.05,0,0,0.05,48.900000000000006,0)" xlink:href="#br"/><use transform="matrix(0.05,0,0,0.05,58.900000000000006,0)" xlink:href="#bm"/><use transform="matrix(0.05,0,0,0.05,64.85000000000001,0)" xlink:href="#bk"/><use transform="matrix(0.05,0,0,0.05,74.85000000000001,0)" xlink:href="#bp"/><use transform="matrix(0.05,0,0,0.05,78.80000000000001,0)" xlink:href="#bq"/></g><g id="ao"><use transform="matrix(0.05,0,0,0.05,0,0)" xlink:href="#bM"/><use transform="matrix(0.05,0,0,0.05,10,0)" xlink:href="#bl"/><use transform="matrix(0.05,0,0,0.05,20,0)" xlink:href="#bl"/><use transform="matrix(0.05,0,0,0.05,30,0)" xlink:href="#bm"/><use transform="matrix(0.05,0,0,0.05,35.95,0)" xlink:href="#bn"/><use transform="matrix(0.05,0,0,0.05,45.95,0)" xlink:href="#bo"/><use transform="matrix(0.05,0,0,0.05,54.95,0)" xlink:href="#br"/><use transform="matrix(0.05,0,0,0.05,64.95,0)" xlink:href="#bk"/><use transform="matrix(0.05,0,0,0.05,74.95,0)" xlink:href="#bY"/><use transform="matrix(0.05,0,0,0.05,84.95,0)" xlink:href="#bD"/></g><path fill="#fff" d="M106-169C34-169 62-67 57 0H25v-261h32l-1 103c12-21 28-36 61-36 89 0 53 116 60 194h-32v-121c2-32-8-49-39-48" id="bZ"/><g id="ap"><use transform="matrix(0.05,0,0,0.05,0,0)" xlink:href="#bE"/><use transform="matrix(0.05,0,0,0.05,12,0)" xlink:href="#bp"/><use transform="matrix(0.05,0,0,0.05,15.949999999999998,0)" xlink:href="#bt"/><use transform="matrix(0.05,0,0,0.05,20.95,0)" xlink:href="#bZ"/><use transform="matrix(0.05,0,0,0.05,30.950000000000003,0)" xlink:href="#br"/><use transform="matrix(0.05,0,0,0.05,40.95,0)" xlink:href="#bm"/></g></defs></g></svg>